<svg width="52" height="52" fill="none" xmlns="http://www.w3.org/2000/svg"><rect width="52" height="52" rx="2" fill="#005C8F"/><path d="m37.04 18.006.006.006.006.006c.248.25.47.742.63 1.289a7.66 7.66 0 0 1 .206.9v.006l.002.012.008.07.03.27c.024.234.057.57.09.972.067.808.132 1.876.132 2.937v2.047c0 1.063-.065 2.132-.132 2.939a42.48 42.48 0 0 1-.12 1.24l-.008.07-.001.012-.001.005-.008.05a7.66 7.66 0 0 1-.197.852c-.162.546-.383 1.038-.63 1.288l-.007.005-.005.006c-.701.734-1.432.81-2 .867l-.171.019c-1.862.132-4.197.201-6.077.237a229.524 229.524 0 0 1-3.046.038h-.185l-.048.001h-.084l-.226-.003a369.973 369.973 0 0 1-3.465-.054c-2.011-.042-4.242-.107-5.3-.205-.16-.029-.324-.05-.49-.072-.673-.088-1.375-.18-1.994-.828l-.01-.01c-.245-.249-.466-.742-.627-1.289a7.69 7.69 0 0 1-.205-.902v-.005l-.002-.012-.008-.07a42.772 42.772 0 0 1-.12-1.242 37.053 37.053 0 0 1-.132-2.937v-2.047c0-1.06.067-2.128.134-2.936a41.684 41.684 0 0 1 .123-1.241l.008-.07.002-.014v-.008l.009-.049a7.631 7.631 0 0 1 .195-.851c.16-.547.38-1.038.627-1.287l.006-.006.005-.006c.701-.733 1.432-.808 2-.867l.172-.018c1.86-.135 4.193-.203 6.073-.237a216.463 216.463 0 0 1 3.043-.034h.247V16v.85h.011V16v.85h.248l.69.004c.589.005 1.412.013 2.353.03 1.88.034 4.212.102 6.073.237l.172.018c.568.059 1.299.134 2 .867Z" stroke="#fff" stroke-width="1.7"/><path d="M28.5 24.634a1 1 0 0 1 0 1.732L24 28.964a1 1 0 0 1-1.5-.866v-5.196a1 1 0 0 1 1.5-.866l4.5 2.598Z" fill="#fff"/></svg>