<svg width="52" height="52" fill="none" xmlns="http://www.w3.org/2000/svg"><rect width="52" height="52" rx="2" fill="#005C8F"/><path d="M13.85 26c0-6.68 5.47-12.15 12.15-12.15 6.68 0 12.15 5.47 12.15 12.15 0 6.68-5.47 12.15-12.15 12.15-6.68 0-12.15-5.47-12.15-12.15Z" stroke="#fff" stroke-width="1.7"/><path d="M26.968 30.348c-4.483 0-7.023-2.976-7.122-8h2.241c.05 3.658 1.743 5.22 3.038 5.512v-5.512h2.092v3.17c1.295-.146 2.64-1.56 3.088-3.17h2.092c-.348 1.95-1.842 3.414-2.888 4 1.046.488 2.739 1.756 3.337 4h-2.341c-.498-1.512-1.744-2.683-3.387-2.878v2.878h-.15Z" fill="#fff"/></svg>