<svg width="52" height="52" fill="none" xmlns="http://www.w3.org/2000/svg"><rect width="52" height="52" rx="2" fill="#005C8F"/><path d="M37.51 15.402a1.504 1.504 0 0 0-1.491-.325l-21.982 7.347c-.6.2-1.006.743-1.035 1.382-.03.639.324 1.217.902 1.474l5.436 2.412 1.64 7.713c.069.32.23.606.569.694.344.089.587-.102.843-.296l4.034-3.063 4.716 3.913a1.488 1.488 0 0 0 1.44.265c.497-.17.865-.581.985-1.099L37.96 16.88a1.553 1.553 0 0 0-.45-1.478ZM22.744 29.074a.198.198 0 0 0-.007.022l-.91 3.222-1.015-4.773 6.979-3.932-4.88 5.173a.746.746 0 0 0-.167.288Zm.289 4.383.413-1.464.395-1.4 1.416 1.175-2.224 1.689Zm13.499-16.918-4.393 18.94c-.002.009-.005.022-.027.029-.021.007-.031-.001-.039-.007l-5.16-4.282-2.392-1.985 7.682-8.145a.749.749 0 0 0-.382-1.243.726.726 0 0 0-.505.078L19.94 26.333l-5.447-2.417c-.017-.008-.026-.012-.025-.04.002-.029.011-.032.028-.038l21.982-7.347c.01-.004.023-.008.04.009.018.016.015.028.013.04Z" fill="#fff"/></svg>