<svg width="33" height="32" fill="none" xmlns="http://www.w3.org/2000/svg"><path d="M16.501 22.666c-2.231 0-4.173 1.687-5.176 4.175-.48 1.188.208 2.492 1.121 2.492h8.11c.913 0 1.6-1.304 1.122-2.492-1.003-2.488-2.945-4.175-5.177-4.175Z" stroke="#fff" stroke-width="2" stroke-linecap="round"/><path d="M25.165 6.666h1.603c1.601 0 2.402 0 2.82.503.417.503.244 1.259-.104 2.769l-.52 2.265c-.784 3.408-3.65 5.941-7.132 6.463m-13.997-12H6.232c-1.601 0-2.402 0-2.82.503-.417.503-.244 1.259.104 2.769l.52 2.265c.784 3.408 3.65 5.941 7.132 6.463" stroke="#fff" stroke-width="2" stroke-linecap="round" stroke-linejoin="round"/><path d="M16.499 22.666c4.027 0 7.42-6.216 8.44-14.679.281-2.34.422-3.51-.325-4.416-.746-.905-1.952-.905-4.364-.905h-7.502c-2.412 0-3.618 0-4.365.905-.747.906-.606 2.076-.324 4.416 1.02 8.463 4.412 14.679 8.44 14.679Z" stroke="#fff" stroke-width="2" stroke-linecap="round"/></svg>