<svg width="68" height="68" fill="none" xmlns="http://www.w3.org/2000/svg"><path d="M45.909 40.345c.177 6.827-5.216 12.502-12.043 12.679-6.826.177-12.501-5.217-12.678-12.043a8.115 8.115 0 0 1 0-.628c0-10.4 12.364-25.687 12.364-25.687S45.91 29.921 45.91 40.346Z" fill="url(#a)"/><path d="M33.552 61.469H5.635V0H0v67.104h33.552v-5.635Z" fill="url(#b)"/><path d="M33.55 0v5.635h27.918v61.469h5.635V0H33.55Z" fill="url(#c)"/><defs><linearGradient id="a" x1="21.182" y1="33.847" x2="45.913" y2="33.847" gradientUnits="userSpaceOnUse"><stop stop-color="#016192"/><stop offset="1" stop-color="#014B7B"/></linearGradient><linearGradient id="b" x1="0" y1="33.552" x2="33.552" y2="33.552" gradientUnits="userSpaceOnUse"><stop stop-color="#016192"/><stop offset="1" stop-color="#014B7B"/></linearGradient><linearGradient id="c" x1="33.551" y1="33.552" x2="67.103" y2="33.552" gradientUnits="userSpaceOnUse"><stop stop-color="#016192"/><stop offset="1" stop-color="#014B7B"/></linearGradient></defs></svg>