<svg width="20" height="20" fill="none" xmlns="http://www.w3.org/2000/svg"><path d="M10 0C4.478 0 0 4.478 0 10c0 1.876.527 3.625 1.426 5.125L.09 20l4.978-1.307A9.946 9.946 0 0 0 10 20c5.523 0 10-4.477 10-10 0-5.522-4.477-10-10-10ZM6.577 5.335c.163 0 .33 0 .474.007.178.004.372.017.558.428.22.488.702 1.713.763 1.837.062.125.106.27.02.433-.082.167-.124.268-.244.415-.124.144-.26.322-.373.43-.124.124-.252.26-.109.508.143.247.641 1.059 1.377 1.714.946.845 1.744 1.104 1.992 1.229.248.124.392.104.536-.062.147-.163.62-.72.786-.969.162-.248.328-.205.553-.123.229.081 1.446.681 1.694.805.249.124.412.186.474.287.064.104.064.6-.141 1.178-.206.578-1.217 1.136-1.67 1.175-.458.043-.885.206-2.974-.617-2.52-.992-4.11-3.573-4.233-3.74-.125-.162-1.01-1.342-1.01-2.558 0-1.221.64-1.82.865-2.067a.91.91 0 0 1 .662-.31Z" fill="url(#a)"/><defs><linearGradient id="a" x1="0" y1="10" x2="20" y2="10" gradientUnits="userSpaceOnUse"><stop stop-color="#016192"/><stop offset="1" stop-color="#014B7B"/></linearGradient></defs></svg>