<svg width="55" height="54" fill="none" xmlns="http://www.w3.org/2000/svg"><path d="M30.432 24.205 7.881 46.756" stroke="#005C8F" stroke-width=".848" stroke-linecap="round" stroke-linejoin="round"/><path d="m35.374 26.557 15.725 15.725c2.352 2.352 2.352 6.222 0 8.573-2.351 2.352-6.221 2.352-8.573 0L26.801 35.13" stroke="#005C8F" stroke-width="1.697" stroke-linecap="round" stroke-linejoin="round"/><path d="m29.629 32.32 15.71 15.71a2.07 2.07 0 0 0 2.938 0 2.07 2.07 0 0 0 0-2.94L32.568 29.38" stroke="#005C8F" stroke-width=".848" stroke-linecap="round" stroke-linejoin="round"/><path d="m12.436 8.642-.212-3.462L4.794 1 1.25 4.544l4.18 7.43 3.462.212 13.113 13.113 3.544-3.544L12.436 8.642Z" stroke="#005C8F" stroke-width="1.697" stroke-linecap="round" stroke-linejoin="round"/><path d="m52.924 10.536-8.459 8.46-6.956-1.862-1.862-6.957 8.46-8.459c-3.92-.947-8.23.098-11.3 3.152-3.365 3.364-4.296 8.247-2.826 12.46L3.641 43.67c-2.008 2.008-2.008 5.307 0 7.315 2.009 2.009 5.307 2.009 7.316 0l26.34-26.34c4.213 1.486 9.095.556 12.46-2.825 3.07-3.07 4.098-7.364 3.151-11.3l.016.016Z" stroke="#005C8F" stroke-width="1.697" stroke-linecap="round" stroke-linejoin="round"/></svg>