<svg width="67" height="64" fill="none" xmlns="http://www.w3.org/2000/svg"><path d="M36.515 6.94c.936-1.162 1.742-2.548 1.742-3.896 0-1.686-1.236-2.08-2.454-2.042L33.5 4.205l-2.303-3.203c-1.218-.018-2.454.375-2.454 2.042 0 1.348.805 2.734 1.742 3.896h6.031Zm8.559 2.547c.637-.786 1.161-1.704 1.161-2.603 0-1.124-.824-1.386-1.648-1.367L43.05 7.652l-1.536-2.135c-.805 0-1.648.243-1.648 1.367 0 .899.543 1.835 1.161 2.603h4.046Zm-19.121 0c.637-.786 1.161-1.704 1.161-2.603 0-1.124-.824-1.386-1.648-1.367L23.93 7.652l-1.536-2.135c-.805 0-1.648.243-1.648 1.367 0 .899.543 1.835 1.161 2.603h4.046Z" stroke="#005C8F" stroke-width=".803" stroke-linecap="round" stroke-linejoin="round"/><path d="M53 40.97s-1.985.599-4.064-.73c-1.498-.956-3.409-6.144-3.409-6.144s-1.891-.393-3.24.58m15.54 2.867s-2.584 1.891-4.85.018c-2.267-1.873-2.829-2.397-2.829-2.397M62.775 31.7s-1.162 3.352-5.02 2.809c-3.858-.544-3.896-.937-3.896-.937M65.734 24.3s.074 4.59-4.44 4.983c-4.513.393-4.476.187-4.476.187M65.6 16.023s.955 2.267-.094 4.196c-1.442 2.64-6.33 4.794-6.33 4.794M40.28 28.59c1.76 2.06 8.109 3.727 8.109-1.948 0-2.229-1.686-3.11-1.686-3.11s5.188-3.595 8.166-7.191c2.978-3.596 6.574-9.421 6.574-9.421s2.398 2.154 2.004 4.832c-.393 2.678-4.439 6.743-4.439 6.743m-18.73 10.096s-1.817-1.61-1.817-4.85c0-3.24 2.847-6.762 5.919-6.968 2.753-.187 3.989.675 3.989.675s2.379-5.17-2.585-5.207c-7.978-.056-10.638-.169-10.638-.169s.637 1.592 1.274 2.229 1.723 1.274 1.723 1.274-2.042 1.648-3.11 4.326c-.917 2.285-1.535 4.888-1.535 4.888M14.027 40.97s1.986.599 4.065-.73c1.498-.956 3.408-6.144 3.408-6.144s1.892-.393 3.24.58M9.182 37.543s2.584 1.891 4.85.018c2.267-1.873 2.829-2.397 2.829-2.397M4.246 31.7s1.161 3.352 5.02 2.809c3.858-.544 3.895-.937 3.895-.937M1.287 24.3s-.075 4.59 4.439 4.983c4.514.393 4.476.187 4.476.187M1.398 16.023s-.955 2.267.094 4.196c1.442 2.64 6.33 4.794 6.33 4.794m18.909 3.577c-1.76 2.06-8.11 3.727-8.11-1.948 0-2.229 1.686-3.11 1.686-3.11s-5.188-3.595-8.166-7.191C9.163 12.745 5.567 6.92 5.567 6.92S3.17 9.074 3.563 11.752c.393 2.678 4.439 6.743 4.439 6.743" stroke="#005C8F" stroke-width="1.605" stroke-linecap="round" stroke-linejoin="round"/><path d="M26.733 28.591s1.817-1.61 1.817-4.85c0-3.24-2.847-6.762-5.919-6.968-2.753-.187-3.989.675-3.989.675s-2.379-5.17 2.585-5.207c7.978-.056 10.638-.169 10.638-.169s-.637 1.592-1.274 2.229-1.723 1.274-1.723 1.274 2.042 1.648 3.11 4.326c.917 2.285 1.535 4.888 1.535 4.888M42.338 59.4s2.285-.675 1.892-3.634c-.469-3.521-9.14-6.05-9.14-6.05s.206-1.142 1.086-2.416c.88-1.273 1.93-2.078 3.24-2.078 1.311 0 2.154.524 2.154 1.741 0 1.218-.618 2.267-.618 2.267s1.555-.543 4.589.487c.88.3 1.704.58 2.434.842a4.189 4.189 0 0 0 8.26-.993 4.2 4.2 0 0 0-4.195-4.195c-1.555 0-2.903.862-3.634 2.117-.374-.056-.711-.113-.974-.15-1.198-.187-2.64-.45-2.64-.45s.486-2.285.486-4.644c0-5.17-3.352-3.522-3.352-3.522M37.88 61.011s1.068-.674 1.555-1.892c.543-1.367-.075-3.502-.075-3.502m-5.862 6.797s1.105-.543 1.723-1.891c.468-1.012.131-3.072.131-3.072M24.66 59.4s-2.285-.673-1.892-3.633c.469-3.52 9.14-6.05 9.14-6.05s-.206-1.142-1.086-2.415c-.88-1.274-1.929-2.08-3.24-2.08-1.311 0-2.154.525-2.154 1.742 0 1.218.618 2.267.618 2.267s-1.554-.543-4.588.487c-.675.224-1.293.45-1.873.655a2.603 2.603 0 0 1-2.473 1.817 2.618 2.618 0 0 1-2.622-2.622 2.606 2.606 0 0 1 2.622-2.622c.58 0 1.105.187 1.536.506.337-.057.656-.094.9-.132 1.198-.187 2.64-.45 2.64-.45s-.487-2.284-.487-4.644c0-5.17 3.352-3.521 3.352-3.521m4.082 22.306s-1.067-.674-1.554-1.892c-.543-1.367.075-3.502.075-3.502" stroke="#005C8F" stroke-width="1.605" stroke-linecap="round" stroke-linejoin="round"/><path d="M33.503 62.414s-1.105-.543-1.723-1.891c-.469-1.012-.131-3.072-.131-3.072m-16.782-9.233-7.998-7.716M20.073 53.22l-1.536-1.48" stroke="#005C8F" stroke-width="1.605" stroke-linecap="round" stroke-linejoin="round"/><path d="M33.494 43.724s-.337-1.254-1.78-1.254h-2.153c-.768 0-1.742-.525-1.742-1.742 0-1.218-.038-9.365-.038-9.365h5.713m.004 12.361s.337-1.254 1.78-1.254h2.153c.768 0 1.742-.525 1.742-1.742 0-1.218.037-9.365.037-9.365h-5.712" stroke="#005C8F" stroke-width=".803" stroke-linecap="round" stroke-linejoin="round"/></svg>