<svg width="58" height="59" fill="none" xmlns="http://www.w3.org/2000/svg"><path d="M46.26 25.395a4.247 4.247 0 0 0-1.91-3.659l-12.67-8.923a4.069 4.069 0 0 0-4.819 0l-12.599 8.923a4.48 4.48 0 0 0-1.998 3.873v16.417a3.282 3.282 0 0 0 3.569 3.57h27.09a3.25 3.25 0 0 0 3.426-3.373 1339.83 1339.83 0 0 1-.09-16.828Zm-4.498 15.543H16.69v-15.08a.946.946 0 0 1 .286-.66l12.081-8.566h.179l4.693 3.32 7.442 5.353a.892.892 0 0 1 .357.571v15.026l.035.036Z" stroke="#005C8F" stroke-linecap="round" stroke-linejoin="round"/><path d="M45.579 2H12.92C6.751 2 1.75 7.002 1.75 13.171V45.83C1.75 51.999 6.752 57 12.921 57H45.58c6.17 0 11.171-5.002 11.171-11.171V13.17C56.75 7.001 51.748 2 45.579 2Z" stroke="#005C8F" stroke-width="2.05" stroke-linecap="round" stroke-linejoin="round"/><path d="M43.646 15.917a.93.93 0 0 0 .035.125.207.207 0 0 1-.071.233l.614.82-.614-.82a.206.206 0 0 1-.079.036.237.237 0 0 1-.089.008s.002.001 0 0c-.005-.003-.089-.072-.149-.321a3.398 3.398 0 0 0-1.32-2.035l-.605.828.604-.828a3.399 3.399 0 0 0-2.342-.635c-.25.02-.342-.04-.349-.045 0 0 0 0 0 0a.17.17 0 0 1-.013-.048.579.579 0 0 1 .025-.16.173.173 0 0 1 .013-.03.038.038 0 0 1 .006-.008.223.223 0 0 1 .048-.027.757.757 0 0 1 .22-.046h.444a3.723 3.723 0 0 1 3.622 2.953Z" stroke="#005C8F" stroke-width="2.05" stroke-linecap="round" stroke-linejoin="round"/><path d="m47.67 14.83-.029.001a.196.196 0 0 1-.204-.175 6.926 6.926 0 0 0-5.598-5.735.999.999 0 0 0-.18-.016c-.445 0-.774-.004-1.087-.08a1 1 0 0 0-.233-.027h-.732a1 1 0 0 0-.111.006.16.16 0 0 1-.12-.035h0a.159.159 0 0 1-.057-.11 1.051 1.051 0 0 0-.005-.043.177.177 0 0 1 .088-.177.177.177 0 0 1 .066-.022 7.03 7.03 0 0 1 5.495 1.353 7.155 7.155 0 0 1 2.818 4.399h0l.002.007c.086.418.01.598-.01.633a.063.063 0 0 1-.003.006.366.366 0 0 1-.1.015Z" stroke="#005C8F" stroke-width="2" stroke-linecap="round" stroke-linejoin="round"/></svg>