<svg width="44" height="44" fill="none" xmlns="http://www.w3.org/2000/svg"><rect width="44" height="44" rx="2" fill="#005C8F"/><path d="M22 11c-6.075 0-11 4.925-11 11 0 2.064.58 3.988 1.568 5.638L11.098 33l5.477-1.438A10.94 10.94 0 0 0 22 33c6.075 0 11-4.925 11-11s-4.925-11-11-11Zm-3.765 5.869c.179 0 .362-.001.52.007.197.005.41.019.615.47.243.538.772 1.886.84 2.022.067.137.116.298.021.476-.09.184-.136.295-.268.457-.137.158-.287.353-.41.473-.137.136-.278.286-.12.558.157.272.705 1.165 1.514 1.885 1.04.93 1.919 1.216 2.192 1.352.273.137.431.116.589-.068.162-.179.681-.792.864-1.065.18-.273.362-.226.61-.136.25.09 1.59.75 1.863.886.273.137.452.204.52.315.072.115.072.66-.155 1.296-.226.636-1.338 1.25-1.837 1.293-.503.047-.973.226-3.27-.678-2.773-1.092-4.52-3.931-4.657-4.115-.137-.178-1.11-1.476-1.11-2.814 0-1.343.704-2 .95-2.274.251-.273.546-.34.729-.34Z" fill="#fff"/></svg>