<svg width="44" height="44" fill="none" xmlns="http://www.w3.org/2000/svg"><rect width="44" height="44" rx="2" fill="#005C8F"/><path d="M29.85 26.893c0 .293-.064.593-.203.886a3.352 3.352 0 0 1-.552.829 3.663 3.663 0 0 1-1.332.958 4.08 4.08 0 0 1-1.585.309c-.829 0-1.714-.195-2.649-.593a14.267 14.267 0 0 1-2.795-1.609 23.355 23.355 0 0 1-2.665-2.275 23.09 23.09 0 0 1-2.266-2.657c-.667-.926-1.203-1.852-1.593-2.77-.39-.927-.585-1.812-.585-2.657 0-.553.098-1.08.293-1.568a3.74 3.74 0 0 1 .934-1.357c.52-.512 1.089-.764 1.69-.764.227 0 .455.049.658.146.211.098.398.244.544.455l1.885 2.657c.147.203.252.39.325.569.073.17.114.341.114.495 0 .195-.057.39-.17.577-.106.187-.26.382-.456.577l-.617.642a.435.435 0 0 0-.13.325.75.75 0 0 0 .024.187c.025.065.05.114.065.163.147.268.399.617.756 1.04.366.422.756.853 1.178 1.283.439.43.861.829 1.292 1.195.422.357.772.6 1.048.747.04.016.09.04.146.065a.56.56 0 0 0 .203.033.447.447 0 0 0 .334-.139l.617-.609c.203-.203.398-.357.585-.455a1.08 1.08 0 0 1 .577-.17c.154 0 .317.032.496.105.178.073.365.179.568.317l2.69 1.91c.211.146.357.316.447.52.08.202.13.406.13.633Z" stroke="#fff" stroke-width="1.7" stroke-miterlimit="10"/></svg>