<svg width="44" height="45" fill="none" xmlns="http://www.w3.org/2000/svg"><rect y=".104" width="44" height="44" rx="2" fill="#005C8F"/><path d="M29.915 28.104H32v-4.143l-3.5-3.857H25v8m4.915 0a1.5 1.5 0 0 0-1.415-1m1.415 1c.055.157.085.325.085.5m-1.5-1.5a1.5 1.5 0 0 0-1.415 1m1.415-1a1.5 1.5 0 0 1 1.5 1.5m-1.5-1.5a1.5 1.5 0 0 0-1.5 1.5m.085-.5H25m2.085 0a1.498 1.498 0 0 0-.085.5m-2-.5v-12H11m14 12h-7.085m0 0a1.5 1.5 0 0 0-1.415-1m1.415 1c.055.157.085.325.085.5m-1.5-1.5a1.5 1.5 0 0 0-1.415 1m1.415-1a1.5 1.5 0 0 1 1.5 1.5m-1.5-1.5a1.5 1.5 0 0 0-1.5 1.5m.085-.5H14m1.085 0a1.498 1.498 0 0 0-.085.5m15 0a1.5 1.5 0 0 1-3 0m-9 0a1.5 1.5 0 0 1-3 0m-.5-6.5H13m1.5 3H14m.5-6H12" stroke="#F5F5F5" stroke-width="1.5" stroke-linecap="round"/></svg>