<svg width="24" height="24" fill="none" xmlns="http://www.w3.org/2000/svg"><path d="M8 17h8m-8-4h4m1-10.5V3c0 2.828 0 4.243.879 5.121C14.757 9 16.172 9 19 9h.5m.5 1.657V14c0 3.771 0 5.657-1.172 6.828C17.657 22 15.771 22 12 22c-3.771 0-5.657 0-6.828-1.172C4 19.657 4 17.771 4 14V9.456c0-3.245 0-4.868.886-5.967a4 4 0 0 1 .603-.603C6.59 2 8.211 2 11.456 2c.705 0 1.058 0 1.381.114.067.024.133.051.197.082.31.148.559.397 1.058.896l4.736 4.736c.579.578.867.868 1.02 1.235.152.368.152.776.152 1.594Z" stroke="#fff" stroke-width="1.7" stroke-linecap="round" stroke-linejoin="round"/></svg>