<svg width="25" height="24" fill="none" xmlns="http://www.w3.org/2000/svg"><path d="m4.937 13.403 7.06 6.55a.741.741 0 0 0 1.007 0l7.059-6.55a4.942 4.942 0 0 0 1.587-3.628V9.55a4.709 4.709 0 0 0-3.953-4.636l-12.76 8.489Zm0 0A4.942 4.942 0 0 1 3.35 9.775V9.55a4.709 4.709 0 0 1 3.953-4.636l-2.366 8.489ZM12.5 7.289l-.6-.595-.468-.466a4.756 4.756 0 0 0-4.129-1.314L12.5 7.29Zm0 0 .6-.595m-.6.595.6-.595m0 0 .468-.466a4.756 4.756 0 0 1 4.129-1.314l-4.598 1.78Z" stroke="#162E3A" stroke-width="1.7"/></svg>