<svg width="110" height="18" fill="none" xmlns="http://www.w3.org/2000/svg"><path fill-rule="evenodd" clip-rule="evenodd" d="M60.145 6.806c-1.78-1.295-3.766-1.593-5.873-1.058a6.18 6.18 0 0 0-4.687 6.005c.019.256.027.513.058.768.242 1.996 1.215 3.523 2.93 4.548 1.3.777 2.72 1.038 4.216.893 1.512-.148 2.845-.719 3.937-1.787 1.442-1.411 2.02-3.153 1.811-5.157-.182-1.752-.974-3.18-2.392-4.212Zm-2.92 8.168c-2.13.718-4.308-.608-4.445-2.986-.061-1.064.227-2.008 1-2.76.798-.78 1.777-1.043 2.853-.866 1.693.279 2.768 1.611 2.776 3.373.006 1.514-.824 2.78-2.184 3.239ZM81.06 6.807c-1.78-1.295-3.765-1.594-5.873-1.06-2.782.705-4.68 3.161-4.666 6.003 0 .162-.004.325.002.487.003.1.02.201.033.302.226 1.843 1.09 3.303 2.621 4.336 1.356.915 2.869 1.236 4.483 1.09 1.527-.138 2.874-.71 3.977-1.789 1.443-1.41 2.022-3.152 1.814-5.155-.182-1.753-.974-3.182-2.391-4.214Zm-2.114 7.746c-1.792 1.303-4.756.544-5.209-2.172-.035-.213-.046-.43-.066-.614.058-1.446.616-2.569 1.94-3.158 1.926-.857 4.307.148 4.656 2.53.203 1.378-.166 2.576-1.32 3.414ZM45.975 5.89c-.837.383-1.449 1.003-1.871 1.824l-.176-2.184-2.85.262c.416 3.973.171 7.946.258 11.913h3.08V12.35c.002-.33.003-.664.038-.992.095-.89.415-1.675 1.122-2.257.61-.504 1.33-.672 2.103-.651.259.006.517.031.79.048l.15-2.945c-.931-.115-1.808-.044-2.644.338Zm-23.932 9.607c-.437.037-.738-.21-.795-.647a3.294 3.294 0 0 1-.028-.425c-.001-2.847-.002-5.695 0-8.542v-.274l-3.258.259c0 .109-.005.202 0 .295.049.911.124 1.822.142 2.734.028 1.46.017 2.921.025 4.382.005.798-.02 1.598.029 2.394.06.978.501 1.737 1.46 2.083.898.323 1.729.295 3.53-.178l-.538-2.17c-.198.032-.382.073-.567.089Zm15.971 0c-.437.037-.737-.21-.795-.647a3.276 3.276 0 0 1-.027-.425v-.075l.002-.005V.698l-3.1.183v5.95c-.231-.163-.43-.32-.645-.453-1.15-.71-2.407-.954-3.74-.846-1.367.112-2.569.626-3.532 1.61-1.655 1.688-2.13 3.755-1.713 6.035.489 2.66 2.636 4.583 5.228 4.797 1.653.136 3.133-.296 4.396-1.407.059-.051.132-.12.176-.162.2.62.623 1.098 1.325 1.35.898.324 1.729.296 3.53-.177l-.538-2.17c-.199.032-.381.073-.567.089Zm-4.73-1.398c-.655.739-1.498 1.064-2.471 1.063-1.715-.002-3.003-1.14-3.245-2.867-.025-.18-.034-.362-.048-.513.032-1.287.476-2.331 1.576-2.997 1.844-1.117 4.661-.257 5.007 2.433.138 1.077-.089 2.058-.819 2.881Zm35.474 1.398c-.437.037-.738-.21-.796-.647a3.573 3.573 0 0 1-.023-.447L67.938.992V.726l-3.097.127v.227c0 4.063.001 8.125.003 12.188v.011c.003.52-.006 1.04.001 1.56.004.278.01.556.027.833.06.979.502 1.738 1.46 2.084.898.323 1.73.295 3.531-.178l-.538-2.17c-.199.032-.382.073-.567.089ZM19.695 3.87c1.101.016 1.948-.791 1.961-1.87.015-1.16-.774-1.986-1.912-2a1.912 1.912 0 0 0-1.952 1.916 1.943 1.943 0 0 0 .55 1.372c.357.366.843.575 1.353.582Zm74.147 10.682c-1.793 1.303-4.757.544-5.21-2.172-.035-.213-.046-.43-.065-.614.057-1.446.615-2.569 1.94-3.158 1.274-.567 2.746-.319 3.699.603l2.18-2.061a6.715 6.715 0 0 0-.43-.344c-1.78-1.295-3.766-1.594-5.874-1.06-2.781.705-4.68 3.161-4.666 6.003 0 .162-.004.325.002.487.003.1.02.201.033.302.226 1.843 1.09 3.303 2.622 4.336 1.355.915 2.868 1.236 4.482 1.09 1.52-.137 2.862-.705 3.962-1.774l-2.252-1.995c-.132.13-.274.249-.423.357Zm12.291-2.628a8.16 8.16 0 0 0 1.048-1.132c1.095-1.437 1.748-3.316 1.748-5.026h-2.852c0 .849-.304 2.155-1.158 3.276-.845 1.11-2.017 1.781-3.48 2.009V.698l-3.08.182v16.823h3.091V13.95a8.97 8.97 0 0 0 2.152-.502c.891 1.369 1.788 2.734 2.678 4.104.079.123.162.167.306.166 1.061-.007 2.121-.003 3.182-.003H110c-1.104-1.656-2.626-3.932-3.867-5.79Zm-97.502-.321h3.413v2.93c-1.173.374-2.401.583-3.279.583-3.366 0-5.5-2.546-5.5-5.687 0-3.54 2.462-5.688 5.5-5.688 1.49 0 2.84.614 3.83 1.608l1.982-1.996C13.117 1.737 11.009.749 8.558.749 3.832.749 0 4.609 0 9.373c0 4.764 3.832 8.625 8.558 8.625a13.533 13.533 0 0 0 3.486-.462c1.143-.306 2.195-.753 3.08-1.3V8.828H8.282l.348 2.775Z" fill="url(#a)"/><defs><linearGradient id="a" x1="0" y1="9" x2="110" y2="9" gradientUnits="userSpaceOnUse"><stop stop-color="#016192"/><stop offset="1" stop-color="#014B7B"/></linearGradient></defs></svg>