<svg width="333" height="68" fill="none" xmlns="http://www.w3.org/2000/svg"><g clip-path="url(#a)" fill="#fff"><path d="M89.436 53.287c0 2.745-2.053 4.75-4.879 4.75-1.119 0-1.94-.274-2.439-.548l-.233-2.012c.241.233 1.15.845 2.511.845 1.683 0 2.745-.902 3.027-2.286h-3.228l-.113-1.69h3.333c-.33-1.289-1.393-2.126-2.987-2.126-1.489 0-2.358.693-2.672.95l.257-2.085c.516-.29 1.36-.571 2.472-.571 2.914 0 4.95 1.827 4.95 4.773Zm4.05-4.613h6.834v9.2h-1.891v-7.518H95.24l-.242 3.558c-.112 1.65-.273 3.075-2.31 4.066l-1.046-1.482c.99-.475 1.336-.861 1.449-2.455l.394-5.37Zm17.156 7.566-.113 1.635h-4.58c-1.151 0-1.836-.403-1.836-1.852v-7.35h6.344l-.113 1.627h-4.339v2.053h3.719l-.113 1.61h-3.606v1.851c0 .274.097.435.435.435h4.202v-.008Zm3.225 1.635v-9.201h1.892v9.2h-1.892Zm4.403-4.806 3.752 4.814h-2.439l-3.558-4.564v-.17l3.646-4.467h2.198l-3.599 4.387Zm13.408-2.713h-2.874v7.527h-1.924v-7.527h-3.083l.113-1.682h7.88l-.112 1.682Zm6.408-1.682c2.617 0 3.937 1.264 3.937 3.228 0 2.012-1.538 3.26-4.009 3.26-.475 0-.95-.032-1.433-.097v2.818h-1.892v-9.21h3.397Zm1.957 3.228c0-.934-.749-1.594-2.053-1.594h-1.409v3.115c.475.073.95.097 1.409.097 1.336.008 2.053-.668 2.053-1.618Zm4.564 1.385c0-2.672 2.029-4.765 4.855-4.765 2.785 0 4.797 2.036 4.797 4.765 0 2.713-2.012 4.75-4.797 4.75-2.834 0-4.855-2.085-4.855-4.75Zm7.736 0c0-1.779-1.231-3.059-2.89-3.059-1.69 0-2.946 1.296-2.946 3.059 0 1.763 1.248 3.043 2.946 3.043 1.659 0 2.89-1.264 2.89-3.043Zm11.786-2.931h-2.874v7.527h-1.924v-7.527h-3.083l.113-1.682h7.881l-.113 1.682Zm9.503 5.884-.113 1.635h-4.58c-1.151 0-1.835-.403-1.835-1.852v-7.35h6.343l-.113 1.627h-4.339v2.053h3.719l-.112 1.61h-3.607v1.851c0 .274.097.435.435.435h4.202v-.008Zm11.186 1.635h-2.27l-2.327-3.373-2.31 3.373h-2.141l3.332-4.71-3.059-4.491h2.27l2.021 3.131 2.125-3.131h2.125l-3.099 4.451 3.333 4.75Zm9.138-9.201h1.891v9.2h-1.891v-3.83h-4.484v3.83h-1.892v-9.2h1.892v3.679h4.484v-3.68Zm12.574 0h1.28v9.2h-1.851v-5.876l-5.015 5.974h-1.264v-9.298h1.835v5.989l5.015-5.99Zm10.632 0h1.884v9.2h-1.884V54.8a5.835 5.835 0 0 1-1.996.346c-2.415 0-4.033-1.063-4.033-3.574v-2.898h1.924v2.672c0 1.353.773 2.07 2.326 2.07.676 0 1.248-.13 1.779-.363v-4.38Zm12.222 7.566-.113 1.635h-4.58c-1.151 0-1.836-.403-1.836-1.852v-7.35h6.344l-.113 1.627h-4.339v2.053h3.719l-.112 1.61h-3.607v1.851c0 .274.097.435.435.435h4.202v-.008Zm2.466-2.97c0-2.744 2.052-4.748 4.87-4.748 1.119 0 1.94.273 2.439.547l.241 2.012c-.257-.233-1.159-.845-2.487-.845-1.94 0-3.156 1.28-3.156 3.115 0 1.763 1.264 2.987 3.132 2.987 1.465 0 2.31-.692 2.624-.95l-.241 2.085c-.532.29-1.361.572-2.488.572-2.809-.009-4.934-1.836-4.934-4.774Zm10.867 4.605v-9.201h1.892v9.2h-1.892Zm4.411-4.806 3.751 4.814h-2.439l-3.558-4.564v-.17l3.647-4.467h2.197l-3.598 4.387Zm13.287-4.395h1.28v9.2h-1.852v-5.876l-5.015 5.974h-1.264v-9.298h1.836v5.989l5.015-5.99Zm11.955 0h1.28v9.201h-1.852V52l-5.015 5.973h-1.263v-9.298h1.835v5.99l5.015-5.99Zm-5.224-2.986 1.433-.145c0 .62.386.958.974.958.635 0 1.03-.346 1.03-.958l1.409.145c0 1.28-1.079 2.125-2.488 2.125-1.408 0-2.358-.83-2.358-2.125Zm21.001 9.33c0 1.852-1.449 3.027-3.76 3.027-.966 0-1.883-.258-2.439-.572l-.298-1.827c.83.563 1.61.805 2.496.805 1.32 0 2.109-.491 2.109-1.36 0-.975-.861-1.208-1.892-1.208h-.95l-.128-1.594h.893c1.135 0 1.634-.402 1.634-1.119 0-.7-.604-1.062-1.706-1.062-.773 0-1.522.185-2.287.547l.145-1.626c.491-.234 1.498-.515 2.439-.515 2.085 0 3.317.893 3.317 2.511a2.03 2.03 0 0 1-1.063 1.78c.926.378 1.49 1.183 1.49 2.213Zm9.224 2.857-.716-1.812h-3.752l-.716 1.812h-1.964l3.904-9.193h1.36l3.88 9.193h-1.996Zm-3.872-3.325h2.568l-1.28-3.26-1.288 3.26Zm15.774.644c0 1.795-1.175 2.689-3.759 2.689h-3.317v-9.21h3.623c1.956 0 3.018.935 3.018 2.36 0 .877-.346 1.561-1.03 1.94.934.338 1.465 1.102 1.465 2.221Zm-3.775-4.983h-1.409v2.27h1.409c.966 0 1.433-.402 1.433-1.135 0-.732-.467-1.135-1.433-1.135Zm.201 6.134c1.135 0 1.682-.434 1.682-1.191 0-.773-.547-1.224-1.666-1.224h-1.626v2.415h1.61Zm6.34-3.058c0-2.672 2.029-4.765 4.854-4.765 2.785 0 4.798 2.036 4.798 4.765 0 2.713-2.013 4.75-4.798 4.75-2.825 0-4.854-2.085-4.854-4.75Zm7.744 0c0-1.779-1.232-3.059-2.89-3.059-1.69 0-2.946 1.296-2.946 3.059 0 1.763 1.248 3.043 2.946 3.043 1.65 0 2.89-1.264 2.89-3.043Zm13.476 6.785h-1.795v-2.197h-5.66v2.197h-1.779v-3.775c1.119-.362 1.321-1.022 1.465-2.97l.331-4.653h6.536v7.623h.894v1.578l.008 2.197Zm-2.713-3.775V50.34h-3.075l-.234 3.132c-.088 1.263-.233 2.197-.805 2.825h4.114ZM118.475 10.67h-5.707v29.76h5.707V10.67Zm18.016 0h-10.675v29.76h10.675c9.796 0 16.204-5.989 16.204-14.9 0-8.911-6.408-14.86-16.204-14.86Zm-.322 24.834h-4.645V15.588h4.645c6.874 0 10.77 4.082 10.77 10.03 0 5.893-3.904 9.886-10.77 9.886Zm64.85-25.301c-9.097 0-15.601 6.73-15.601 15.367 0 8.638 6.496 15.368 15.601 15.368 8.959 0 15.455-6.593 15.455-15.368 0-8.774-6.496-15.367-15.455-15.367Zm0 25.583c-5.667 0-9.845-4.315-9.845-10.216 0-5.9 4.178-10.215 9.845-10.215 5.474 0 9.66 4.275 9.66 10.215 0 5.99-4.178 10.216-9.66 10.216ZM227.76 10.67h-5.715v29.752h18.668l.467-4.918h-13.42V10.67Zm30.034-.467c-9.096 0-15.601 6.73-15.601 15.367 0 8.638 6.497 15.368 15.601 15.368 8.96 0 15.456-6.593 15.456-15.368 0-8.774-6.496-15.367-15.456-15.367Zm0 25.583c-5.667 0-9.845-4.315-9.845-10.216 0-5.9 4.178-10.215 9.845-10.215 5.474 0 9.66 4.275 9.66 10.215 0 5.99-4.186 10.216-9.66 10.216Zm67.823 4.637h7.382l-11.423-14.184c4.999-3.067 8.678-8.436 8.678-15.585h-5.442c0 5.796-3.976 11.898-11.374 12.912V10.67h-5.708v29.76h5.708V29.049a19.986 19.986 0 0 0 2.568-.467l9.611 11.842ZM95.316 29.62h6.15v5.24c-2.117.668-4.33 1.047-5.908 1.047-6.07 0-9.918-4.557-9.918-10.175 0-6.336 4.436-10.175 9.918-10.175 2.688 0 5.12 1.094 6.907 2.873l3.574-3.574c-2.633-2.89-6.432-4.66-10.852-4.66-8.524 0-15.431 6.906-15.431 15.431 0 8.525 6.907 15.432 15.431 15.432 2.158 0 4.3-.298 6.287-.83 2.061-.547 3.953-1.344 5.555-2.326V24.645H94.697l.62 4.975Zm197.589-14.064c2.689 0 5.12 1.095 6.907 2.874l3.574-3.574c-2.632-2.89-6.431-4.66-10.851-4.66-8.525 0-15.431 6.906-15.431 15.431 0 8.517 6.906 15.432 15.431 15.432 4.42 0 8.219-1.771 10.851-4.661l-3.574-3.574c-1.787 1.779-4.218 2.873-6.907 2.873-5.449 0-9.861-3.8-9.909-10.07.048-6.27 4.46-10.07 9.909-10.07ZM181.432 20.37c0-6.408-4.693-9.7-11.511-9.7h-11.56v29.76h5.708V30.022c1.586.233 3.332.266 4.701.274 1.256 4.17 3.63 7.84 6.037 10.827l6.778-.491c-1.891-2.029-5.602-6.247-7.333-11.101 3.598-1.167 7.18-3.88 7.18-9.161Zm-17.363-4.782h5.482c3.437 0 5.941 1.715 5.941 4.879 0 3.067-2.23 5.015-6.545 5.015-1.626 0-3.252-.049-4.878-.322v-9.572ZM45.909 40.792c.177 6.827-5.216 12.502-12.043 12.679-6.826.177-12.501-5.216-12.678-12.043a8.115 8.115 0 0 1 0-.627c0-10.401 12.364-25.688 12.364-25.688S45.91 30.368 45.91 40.793Z"/><path d="M33.552 61.916H5.635V.447H0v67.104h33.552v-5.635ZM33.55.447v5.635h27.918v61.47h5.635V.446H33.55Z"/></g><defs><clipPath id="a"><path fill="#fff" transform="translate(0 .447)" d="M0 0h333v67.104H0z"/></clipPath></defs></svg>