<svg width="215" height="36" fill="none" xmlns="http://www.w3.org/2000/svg"><path fill-rule="evenodd" clip-rule="evenodd" d="M117.556 13.412c-3.478-2.553-7.36-3.139-11.48-2.086-5.434 1.389-9.146 6.233-9.16 11.834.037.505.053 1.012.113 1.513.474 3.933 2.375 6.942 5.727 8.962 2.541 1.53 5.316 2.046 8.241 1.76 2.954-.29 5.56-1.416 7.694-3.522 2.819-2.78 3.949-6.213 3.541-10.16-.356-3.454-1.905-6.268-4.676-8.301Zm-5.707 16.094c-4.164 1.416-8.42-1.197-8.688-5.884-.12-2.097.444-3.955 1.953-5.438 1.561-1.535 3.475-2.054 5.577-1.706 3.31.55 5.412 3.175 5.426 6.647.012 2.982-1.61 5.477-4.268 6.381Zm46.584-16.092c-3.477-2.553-7.359-3.141-11.479-2.089-5.436 1.388-9.148 6.229-9.119 11.83 0 .32-.008.64.003.959.007.199.041.397.065.595.441 3.632 2.129 6.51 5.123 8.545 2.65 1.802 5.607 2.435 8.762 2.148 2.985-.272 5.618-1.4 7.774-3.526 2.82-2.779 3.95-6.212 3.545-10.16-.355-3.453-1.904-6.268-4.674-8.302Zm-4.13 15.264c-3.504 2.567-9.298 1.07-10.183-4.28-.069-.42-.09-.846-.129-1.211.113-2.85 1.204-5.06 3.794-6.223 3.763-1.69 8.417.293 9.099 4.988.395 2.714-.326 5.074-2.581 6.726ZM89.861 11.607c-1.636.754-2.832 1.977-3.658 3.594l-.345-4.303-5.569.516c.813 7.828.334 15.658.505 23.476h6.018v-.522c0-3.345 0-6.69.003-10.034 0-.652.004-1.308.073-1.955.185-1.753.81-3.3 2.191-4.447 1.195-.992 2.602-1.323 4.112-1.284.506.014 1.01.063 1.543.097l.295-5.805c-1.82-.226-3.534-.086-5.168.667Zm-46.776 18.93c-.855.074-1.443-.413-1.555-1.274a6.518 6.518 0 0 1-.054-.837c-.003-5.61-.004-11.222-.002-16.833v-.54c-2.16.172-4.258.341-6.367.51 0 .215-.008.398.002.58.094 1.797.242 3.592.276 5.389.055 2.878.034 5.757.05 8.636.008 1.572-.041 3.149.055 4.716.119 1.927.98 3.424 2.854 4.105 1.755.637 3.38.582 6.901-.35l-1.053-4.277c-.388.063-.746.144-1.107.175Zm31.216 0c-.855.074-1.442-.413-1.555-1.274a6.535 6.535 0 0 1-.053-.837v-.15l.003-.009V1.375l-6.056.361v11.726c-.453-.323-.844-.632-1.263-.894-2.248-1.4-4.703-1.88-7.308-1.666-2.673.22-5.023 1.233-6.906 3.17C47.928 17.4 47 21.474 47.817 25.966c.954 5.243 5.15 9.03 10.218 9.452 3.23.268 6.123-.583 8.591-2.771.115-.102.259-.239.345-.32.392 1.224 1.217 2.163 2.59 2.662 1.755.637 3.379.582 6.9-.35l-1.052-4.277c-.389.063-.746.144-1.108.175Zm-9.246-2.753c-1.28 1.455-2.928 2.095-4.83 2.093-3.352-.003-5.87-2.246-6.342-5.648-.05-.355-.067-.714-.095-1.013.064-2.536.932-4.592 3.08-5.905 3.605-2.201 9.112-.507 9.787 4.794.27 2.122-.173 4.056-1.6 5.679Zm69.335 2.753c-.854.074-1.442-.413-1.554-1.274a7.01 7.01 0 0 1-.047-.881v-.002c-.002-8.784-.001-17.639-.001-26.424v-.525l-6.053.25v.447c0 8.006.002 16.011.006 24.016l-.001.024c.006 1.024-.01 2.05.003 3.073.006.548.019 1.096.053 1.643.118 1.927.98 3.423 2.854 4.105 1.755.637 3.379.581 6.901-.35l-1.053-4.277c-.388.063-.746.144-1.108.175ZM38.495 7.627c2.153.032 3.807-1.558 3.833-3.683C42.357 1.657 40.815.03 38.591 0c-2.115-.028-3.798 1.638-3.816 3.777a3.844 3.844 0 0 0 1.075 2.704 3.744 3.744 0 0 0 2.645 1.147Zm144.923 21.051c-3.503 2.567-9.297 1.07-10.182-4.28-.069-.42-.091-.846-.129-1.21.112-2.85 1.204-5.062 3.793-6.224 2.49-1.117 5.368-.628 7.229 1.19l4.263-4.063c-.268-.234-.549-.46-.843-.677-3.478-2.553-7.36-3.141-11.48-2.089-5.436 1.388-9.148 6.229-9.119 11.83 0 .32-.008.64.003.959.007.199.041.397.065.595.442 3.632 2.13 6.51 5.124 8.545 2.649 1.802 5.606 2.435 8.762 2.148 2.97-.27 5.593-1.39 7.743-3.497l-4.402-3.931c-.258.255-.535.49-.827.704Zm24.025-5.18a16.001 16.001 0 0 0 2.047-2.23c2.139-2.831 3.416-6.533 3.416-9.903h-5.574c0 1.672-.595 4.246-2.264 6.455-1.651 2.188-3.941 3.51-6.802 3.958V1.376l-6.017.359v33.15h6.039V27.49a17.43 17.43 0 0 0 4.208-.99c1.741 2.697 3.493 5.388 5.232 8.087.156.243.318.328.6.327 2.073-.013 4.145-.007 6.218-.007H215c-2.158-3.261-5.133-7.747-7.557-11.408Zm-190.574-.632h6.672v5.773c-2.292.737-4.694 1.15-6.41 1.15-6.58 0-10.75-5.017-10.75-11.207 0-6.976 4.813-11.208 10.75-11.208 2.913 0 5.552 1.209 7.488 3.17l3.872-3.935c-2.854-3.185-6.972-5.134-11.764-5.134C7.49 1.475 0 9.085 0 18.47c0 9.387 7.489 16.996 16.727 16.996a26.24 26.24 0 0 0 6.814-.91c2.233-.604 4.29-1.484 6.018-2.563V17.397h-13.37l.68 5.469Z" fill="url(#a)"/><defs><linearGradient id="a" x1="0" y1="17.735" x2="215" y2="17.735" gradientUnits="userSpaceOnUse"><stop stop-color="#016192"/><stop offset="1" stop-color="#014B7B"/></linearGradient></defs></svg>