<svg width="24" height="24" fill="none" xmlns="http://www.w3.org/2000/svg"><rect x=".85" y=".85" width="22.3" height="22.3" rx="11.15" stroke="#162E3A" stroke-width="1.7"/><path d="M12.33 14.424h-1.566v-.648c0-2.592 2.682-2.79 2.682-4.626 0-.972-.648-1.584-1.926-1.584A4.309 4.309 0 0 0 9 8.34l.144-1.71C9.99 6.216 10.782 6 11.826 6c2.016 0 3.438 1.026 3.438 2.88 0 2.772-2.934 2.97-2.934 5.13v.414Zm-.774 3.852c-.648 0-1.134-.504-1.134-1.152 0-.612.486-1.116 1.134-1.116.648 0 1.134.486 1.134 1.116 0 .648-.486 1.152-1.134 1.152Z" fill="#162E3A"/></svg>