<svg width="33" height="32" fill="none" xmlns="http://www.w3.org/2000/svg"><g clip-path="url(#a)"><path d="M9.833 14.667v10.667A1.333 1.333 0 0 1 8.5 26.667H5.833A1.334 1.334 0 0 1 4.5 25.334v-9.333a1.334 1.334 0 0 1 1.333-1.334h4Zm0 0a5.333 5.333 0 0 0 5.334-5.333V8.001A2.667 2.667 0 1 1 20.5 8v6.666h4a2.667 2.667 0 0 1 2.667 2.667L25.833 24c-.191.818-.555 1.52-1.036 2-.481.482-1.053.715-1.63.666h-9.334a4 4 0 0 1-4-4" stroke="#fff" stroke-width="2" stroke-linecap="round" stroke-linejoin="round"/></g><defs><clipPath id="a"><path fill="#fff" transform="translate(.5)" d="M0 0h32v32H0z"/></clipPath></defs></svg>