<svg width="52" height="52" viewBox="0 0 52 52" fill="none" xmlns="http://www.w3.org/2000/svg">
<rect width="52" height="52" rx="2" fill="#005C8F"/>
<path d="M37.5106 15.4018C37.3127 15.2182 37.0702 15.0913 36.808 15.0342C36.5458 14.9771 36.2734 14.9917 36.0186 15.0767L14.0367 22.4244C13.4376 22.6247 13.0314 23.1669 13.0017 23.8058C12.9721 24.4447 13.3264 25.0233 13.9042 25.2797L19.3405 27.6916L20.9807 35.4054C21.0488 35.7258 21.2092 36.0113 21.549 36.0991C21.8927 36.1878 22.1355 35.9974 22.392 35.8027L26.4262 32.7396L31.1425 36.653C31.4172 36.8811 31.7529 37 32.0953 37C32.2611 36.9998 32.4258 36.9721 32.5829 36.918C33.0792 36.7473 33.4472 36.3365 33.5672 35.8191L37.9601 16.8804C38.0213 16.6157 38.012 16.3392 37.933 16.0793C37.854 15.8194 37.7082 15.5856 37.5106 15.4018ZM22.7434 29.0736C22.7407 29.08 22.7381 29.0873 22.7356 29.096L21.8262 32.3177L20.8114 27.545L27.7898 23.6134L22.9108 28.7864C22.8343 28.868 22.777 28.9663 22.7434 29.0736ZM23.032 33.4567L23.4451 31.9934L23.8401 30.5937L25.2557 31.7683L23.032 33.4567ZM36.5308 16.5395L32.1379 35.4782C32.1357 35.4876 32.1328 35.5006 32.1113 35.5079C32.09 35.5153 32.0797 35.5069 32.0724 35.5008L26.9116 31.2185L26.9112 31.2182L24.5202 29.2341L32.202 21.0893C32.3234 20.9606 32.3953 20.792 32.4045 20.6141C32.4138 20.4363 32.3599 20.2609 32.2525 20.1199C32.1452 19.9789 31.9915 19.8816 31.8195 19.8457C31.6474 19.8098 31.4684 19.8376 31.3148 19.9241L19.9402 26.3325L14.4928 23.9156C14.4762 23.9083 14.4671 23.9042 14.4684 23.8757C14.4697 23.8473 14.4792 23.8441 14.4964 23.8384L36.4783 16.4907C36.4889 16.4872 36.5009 16.4831 36.5186 16.4995C36.5363 16.5159 36.5334 16.5284 36.5308 16.5395Z" fill="white"/>
</svg>
