<svg width="44" height="44" viewBox="0 0 44 44" fill="none" xmlns="http://www.w3.org/2000/svg">
<rect width="44" height="43.9999" rx="2" fill="#005C8F"/>
<path d="M22 11C15.9253 11 11 15.9253 11 22C11 24.0636 11.5796 25.9876 12.5684 27.6379L11.0985 33L16.5752 31.5623C18.1769 32.473 20.0259 33 22 33C28.0748 33 33 28.0748 33 22C33 15.9253 28.0748 11 22 11ZM18.2349 16.8688C18.4136 16.8688 18.5973 16.8677 18.7559 16.876C18.952 16.8806 19.1655 16.8949 19.37 17.3468C19.6129 17.884 20.1418 19.2316 20.2096 19.3682C20.2775 19.5047 20.3255 19.6657 20.2311 19.8444C20.1413 20.0277 20.0946 20.1387 19.9626 20.3009C19.826 20.4586 19.6763 20.6544 19.5526 20.7736C19.416 20.9102 19.275 21.0599 19.4326 21.3322C19.5903 21.6044 20.1378 22.4969 20.9473 23.2174C21.9877 24.1469 22.8655 24.4326 23.1387 24.5692C23.4118 24.7058 23.57 24.6845 23.7277 24.5011C23.89 24.3224 24.4091 23.709 24.5924 23.4359C24.7712 23.1627 24.9537 23.21 25.2012 23.2998C25.4523 23.3896 26.7918 24.0495 27.0649 24.186C27.3381 24.3226 27.5172 24.3902 27.5859 24.5011C27.6565 24.6157 27.6566 25.1612 27.4302 25.7974C27.2038 26.4326 26.0919 27.0469 25.5933 27.09C25.09 27.1368 24.6203 27.3162 22.3223 26.4115C19.5503 25.3197 17.8021 22.4805 17.6655 22.2972C17.5289 22.1185 16.5555 20.8211 16.5555 19.4827C16.5555 18.1398 17.2596 17.4822 17.5062 17.209C17.7574 16.9358 18.0515 16.8688 18.2349 16.8688Z" fill="white"/>
</svg>
