<svg width="44" height="44" viewBox="0 0 44 44" fill="none" xmlns="http://www.w3.org/2000/svg">
<rect width="44" height="44" rx="2" fill="#005C8F"/>
<path d="M29.8506 26.8931C29.8506 27.1856 29.7856 27.4863 29.6475 27.7788C29.5094 28.0713 29.3306 28.3475 29.095 28.6075C28.6969 29.0463 28.2581 29.3631 27.7625 29.5663C27.275 29.7694 26.7469 29.875 26.1781 29.875C25.3494 29.875 24.4637 29.68 23.5294 29.2819C22.595 28.8838 21.6606 28.3475 20.7344 27.6731C19.8 26.9906 18.9144 26.235 18.0694 25.3981C17.2325 24.5531 16.4769 23.6675 15.8025 22.7413C15.1362 21.815 14.6 20.8888 14.21 19.9706C13.82 19.0444 13.625 18.1587 13.625 17.3137C13.625 16.7612 13.7225 16.2331 13.9175 15.7456C14.1125 15.25 14.4213 14.795 14.8519 14.3888C15.3719 13.8769 15.9406 13.625 16.5419 13.625C16.7694 13.625 16.9969 13.6738 17.2 13.7713C17.4113 13.8688 17.5981 14.015 17.7444 14.2263L19.6294 16.8831C19.7756 17.0863 19.8812 17.2731 19.9544 17.4519C20.0275 17.6225 20.0681 17.7931 20.0681 17.9475C20.0681 18.1425 20.0113 18.3375 19.8975 18.5244C19.7919 18.7112 19.6375 18.9062 19.4425 19.1012L18.825 19.7431C18.7356 19.8325 18.695 19.9381 18.695 20.0681C18.695 20.1331 18.7031 20.19 18.7194 20.255C18.7438 20.32 18.7681 20.3687 18.7844 20.4175C18.9306 20.6856 19.1825 21.035 19.54 21.4575C19.9056 21.88 20.2956 22.3106 20.7181 22.7413C21.1569 23.1719 21.5794 23.57 22.01 23.9356C22.4325 24.2931 22.7819 24.5369 23.0581 24.6831C23.0987 24.6994 23.1475 24.7237 23.2044 24.7481C23.2694 24.7725 23.3344 24.7806 23.4075 24.7806C23.5456 24.7806 23.6512 24.7319 23.7406 24.6425L24.3581 24.0331C24.5613 23.83 24.7563 23.6756 24.9431 23.5781C25.13 23.4644 25.3169 23.4075 25.52 23.4075C25.6744 23.4075 25.8369 23.44 26.0156 23.5131C26.1944 23.5863 26.3813 23.6919 26.5844 23.83L29.2738 25.7394C29.485 25.8856 29.6312 26.0562 29.7206 26.2594C29.8019 26.4625 29.8506 26.6656 29.8506 26.8931Z" stroke="white" stroke-width="1.7" stroke-miterlimit="10"/>
</svg>
