<svg width="44" height="44" viewBox="0 0 44 44" fill="none" xmlns="http://www.w3.org/2000/svg">
<rect width="44" height="44" rx="2" fill="#005C8F"/>
<path d="M28.4294 19.1434C28.4294 22.7006 22.0008 31.2863 22.0008 31.2863C22.0008 31.2863 15.5723 22.7006 15.5723 19.1434C15.5723 17.4385 16.2496 15.8033 17.4552 14.5977C18.6607 13.3921 20.2959 12.7148 22.0008 12.7148C23.7058 12.7148 25.3409 13.3921 26.5465 14.5977C27.7521 15.8033 28.4294 17.4385 28.4294 19.1434V19.1434Z" stroke="white" stroke-width="1.7" stroke-linecap="round" stroke-linejoin="round"/>
<path d="M22.0003 21.2857C23.1837 21.2857 24.1431 20.3263 24.1431 19.1429C24.1431 17.9594 23.1837 17 22.0003 17C20.8168 17 19.8574 17.9594 19.8574 19.1429C19.8574 20.3263 20.8168 21.2857 22.0003 21.2857Z" stroke="white" stroke-width="1.7" stroke-linecap="round" stroke-linejoin="round"/>
</svg>
