<svg width="52" height="52" viewBox="0 0 52 52" fill="none" xmlns="http://www.w3.org/2000/svg">
<rect width="52" height="52" rx="2" fill="#005C8F"/>
<path d="M13.85 26C13.85 19.3194 19.3194 13.85 26 13.85C32.6806 13.85 38.15 19.3194 38.15 26C38.15 32.6806 32.6806 38.15 26 38.15C19.3194 38.15 13.85 32.6806 13.85 26Z" stroke="white" stroke-width="1.7"/>
<path d="M26.9683 30.3477C22.4855 30.3477 19.9453 27.372 19.8457 22.3477H22.0871C22.1369 26.0062 23.8304 27.5672 25.1254 27.8599V22.3477H27.2174V25.5184C28.5124 25.372 29.8572 23.9574 30.3055 22.3477H32.3974C32.0488 24.2989 30.5545 25.7623 29.5085 26.3477C30.5545 26.8355 32.248 28.1038 32.8457 30.3477H30.5047C30.0066 28.8355 28.7614 27.6647 27.1177 27.4696V30.3477H26.9683Z" fill="white"/>
</svg>
