<svg width="52" height="52" viewBox="0 0 52 52" fill="none" xmlns="http://www.w3.org/2000/svg">
<rect width="52" height="52" rx="2" fill="#005C8F"/>
<path d="M37.0407 18.0065L37.0463 18.0124L37.0521 18.0183C37.2995 18.2674 37.5212 18.7597 37.6824 19.3066C37.7572 19.5603 37.8098 19.7931 37.8436 19.9623C37.8604 20.0464 37.8723 20.1137 37.8798 20.1585C37.8836 20.1808 37.8862 20.1975 37.8878 20.2078L37.8886 20.213L37.89 20.2252L37.8981 20.2949C37.9052 20.3566 37.9154 20.4481 37.9278 20.565C37.9524 20.7989 37.9854 21.1343 38.0184 21.537C38.0846 22.3447 38.15 23.4132 38.15 24.4738V26.521C38.15 27.5842 38.0846 28.6527 38.0184 29.4596C37.9854 29.862 37.9524 30.1968 37.9278 30.4303C37.9155 30.547 37.9052 30.6383 37.8982 30.6999L37.89 30.7694L37.8886 30.7816L37.8878 30.7869C37.8862 30.7972 37.8836 30.8139 37.8798 30.8363C37.8723 30.8811 37.8604 30.9483 37.8436 31.0324C37.8098 31.2016 37.7572 31.4344 37.6824 31.6881C37.5212 32.235 37.2995 32.7273 37.0521 32.9765L37.0463 32.9823L37.0407 32.9882C36.3396 33.7221 35.6091 33.7972 35.0413 33.8555C34.9824 33.8616 34.9252 33.8675 34.87 33.8739C33.0081 34.0059 30.6734 34.0752 28.7928 34.1112C27.8511 34.1293 27.0268 34.139 26.4381 34.1442C26.1438 34.1468 25.9085 34.1482 25.7469 34.149L25.5618 34.1498L25.5142 34.15L25.5028 34.15L25.4878 34.1499L25.4291 34.1493L25.2034 34.1469C25.0079 34.1448 24.7259 34.1415 24.3807 34.137C23.6903 34.1278 22.7475 34.1135 21.7377 34.0928C19.7266 34.0515 17.496 33.9856 16.4372 33.8883C16.2772 33.859 16.1138 33.8376 15.9486 33.8159C15.275 33.7277 14.5727 33.6358 13.9541 32.9882L13.9541 32.9882L13.9445 32.9784C13.6987 32.7292 13.478 32.2364 13.3172 31.689C13.2426 31.4351 13.1901 31.2021 13.1564 31.0328C13.1396 30.9486 13.1277 30.8813 13.1202 30.8364C13.1165 30.814 13.1138 30.7973 13.1122 30.787L13.1114 30.7817L13.11 30.7696L13.1019 30.6999C13.0948 30.6381 13.0846 30.5467 13.0722 30.4297C13.0476 30.1958 13.0146 29.8604 12.9816 29.4577C12.9154 28.65 12.85 27.5816 12.85 26.521V24.4738C12.85 23.4138 12.9167 22.3458 12.9842 21.5384C13.0178 21.1358 13.0514 20.8006 13.0765 20.5667C13.0891 20.4498 13.0995 20.3584 13.1067 20.2967L13.115 20.2271L13.1167 20.2127L13.1178 20.2055C13.1193 20.1952 13.1219 20.1786 13.1256 20.1562C13.133 20.1114 13.1447 20.0443 13.1613 19.9602C13.1946 19.7911 13.2466 19.5584 13.3207 19.3048C13.4807 18.7581 13.7011 18.2667 13.9479 18.0183L13.9537 18.0124L13.9593 18.0065C14.6604 17.2727 15.3909 17.1976 15.9587 17.1392C16.0178 17.1331 16.0752 17.1272 16.1306 17.1208C17.9915 16.9862 20.3244 16.9183 22.2037 16.8842C23.1446 16.8671 23.968 16.8585 24.5561 16.8543C24.8501 16.8521 25.0852 16.8511 25.2466 16.8505L25.4315 16.8501L25.479 16.85L25.4909 16.85L25.4939 16.85L25.4945 16.85H25.4947L25.4947 16V16.85H25.5053V16L25.5053 16.85H25.5055L25.5061 16.85L25.5091 16.85L25.521 16.85L25.5685 16.8501L25.7534 16.8505C25.9148 16.8511 26.1499 16.8521 26.4439 16.8543C27.032 16.8585 27.8554 16.8671 28.7963 16.8842C30.6757 16.9183 33.0085 16.9862 34.8694 17.1208C34.9248 17.1272 34.9822 17.1331 35.0413 17.1392C35.6091 17.1976 36.3396 17.2727 37.0407 18.0065Z" stroke="white" stroke-width="1.7"/>
<path d="M28.5 24.634C29.1667 25.0189 29.1667 25.9811 28.5 26.366L24 28.9641C23.3333 29.349 22.5 28.8679 22.5 28.0981V22.9019C22.5 22.1321 23.3333 21.651 24 22.0359L28.5 24.634Z" fill="white"/>
</svg>
