<svg width="44" height="45" viewBox="0 0 44 45" fill="none" xmlns="http://www.w3.org/2000/svg">
<rect y="0.104004" width="44" height="44" rx="2" fill="#005C8F"/>
<path d="M29.9148 28.1043L32 28.104V23.9611L28.5 20.104H25V28.104M29.9148 28.1043C29.7089 27.5215 29.1532 27.104 28.5 27.104M29.9148 28.1043C29.97 28.2606 30 28.4288 30 28.604M28.5 27.104C27.8468 27.104 27.2911 27.5215 27.0852 28.1043M28.5 27.104C29.3284 27.104 30 27.7756 30 28.604M28.5 27.104C27.6716 27.104 27 27.7756 27 28.604M27.0852 28.1043L25 28.104M27.0852 28.1043C27.03 28.2606 27 28.4288 27 28.604M25 28.104V16.104H11M25 28.104L17.9148 28.1043M17.9148 28.1043C17.7089 27.5215 17.1532 27.104 16.5 27.104M17.9148 28.1043C17.97 28.2606 18 28.4288 18 28.604M16.5 27.104C15.8468 27.104 15.2911 27.5215 15.0852 28.1043M16.5 27.104C17.3284 27.104 18 27.7756 18 28.604M16.5 27.104C15.6716 27.104 15 27.7756 15 28.604M15.0852 28.1043L14 28.104M15.0852 28.1043C15.03 28.2606 15 28.4288 15 28.604M30 28.604C30 29.4324 29.3284 30.104 28.5 30.104C27.6716 30.104 27 29.4324 27 28.604M18 28.604C18 29.4324 17.3284 30.104 16.5 30.104C15.6716 30.104 15 29.4324 15 28.604M14.5 22.104H13M14.5 25.104H14M14.5 19.104H12" stroke="#F5F5F5" stroke-width="1.5" stroke-linecap="round"/>
</svg>
