<svg width="33" height="32" viewBox="0 0 33 32" fill="none" xmlns="http://www.w3.org/2000/svg">
<path d="M16.5013 22.666C14.2698 22.666 12.3276 24.3527 11.3248 26.8409C10.8459 28.0293 11.5332 29.3327 12.4463 29.3327H20.5562C21.4694 29.3327 22.1566 28.0293 21.6777 26.8409C20.675 24.3527 18.7328 22.666 16.5013 22.666Z" stroke="white" stroke-width="2" stroke-linecap="round"/>
<path d="M25.1654 6.66602H26.7683C28.3695 6.66602 29.17 6.66602 29.5878 7.16916C30.0054 7.67231 29.8318 8.42752 29.4844 9.93795L28.9634 12.2034C28.1799 15.6108 25.3132 18.1444 21.832 18.666" stroke="white" stroke-width="2" stroke-linecap="round" stroke-linejoin="round"/>
<path d="M7.83464 6.66602H6.23169C4.63053 6.66602 3.82996 6.66602 3.41229 7.16916C2.99462 7.67231 3.16829 8.42752 3.51564 9.93795L4.03661 12.2034C4.82016 15.6108 7.6868 18.1444 11.168 18.666" stroke="white" stroke-width="2" stroke-linecap="round" stroke-linejoin="round"/>
<path d="M16.4987 22.666C20.5264 22.666 23.9187 16.4499 24.9383 7.9872C25.2203 5.64679 25.3614 4.47659 24.6144 3.5713C23.8676 2.66602 22.6618 2.66602 20.2499 2.66602H12.7475C10.3357 2.66602 9.12981 2.66602 8.38293 3.5713C7.63605 4.47659 7.77703 5.64679 8.05903 7.9872C9.0787 16.4499 12.471 22.666 16.4987 22.666Z" stroke="white" stroke-width="2" stroke-linecap="round"/>
</svg>
