<svg width="18" height="18" viewBox="0 0 18 18" fill="none" xmlns="http://www.w3.org/2000/svg">
<path fill-rule="evenodd" clip-rule="evenodd" d="M13.8608 1.67053L15.9043 3.33363C16.1015 3.52588 16.2121 3.79013 16.2105 4.06559C16.209 4.34105 16.0953 4.60401 15.8959 4.79397L14.3431 6.68506L9.05852 13.1326C8.96703 13.2403 8.84386 13.3164 8.70657 13.3501L5.9666 13.9804C5.60304 13.9955 5.28951 13.7273 5.24799 13.3658L5.37616 10.6626C5.38566 10.5246 5.4403 10.3936 5.53165 10.2897L10.5882 4.12789L12.369 1.95524C12.715 1.48429 13.3657 1.3601 13.8608 1.67053Z" stroke="#005C8F" stroke-width="1.3" stroke-linecap="round" stroke-linejoin="round"/>
<path d="M1.5 16.5998C1.14101 16.5998 0.85 16.8908 0.85 17.2498C0.85 17.6088 1.14101 17.8998 1.5 17.8998V16.5998ZM15.8933 17.8998C16.2522 17.8998 16.5433 17.6088 16.5433 17.2498C16.5433 16.8908 16.2522 16.5998 15.8933 16.5998V17.8998ZM11.19 3.88464C11.0556 3.55175 10.6768 3.39081 10.344 3.52518C10.0111 3.65954 9.85013 4.03833 9.9845 4.37122L11.19 3.88464ZM14.4853 7.32227C14.8355 7.24317 15.0552 6.89518 14.9761 6.54502C14.897 6.19486 14.549 5.97512 14.1989 6.05423L14.4853 7.32227ZM1.5 17.8998H15.8933V16.5998H1.5V17.8998ZM9.9845 4.37122C10.2229 4.96188 10.7141 5.8058 11.4422 6.45326C12.1817 7.11087 13.2219 7.60769 14.4853 7.32227L14.1989 6.05423C13.4672 6.21952 12.8401 5.95676 12.306 5.48181C11.7605 4.99672 11.3718 4.33513 11.19 3.88464L9.9845 4.37122Z" fill="#005C8F"/>
</svg>
