<svg width="25" height="24" viewBox="0 0 25 24" fill="none" xmlns="http://www.w3.org/2000/svg">
<path d="M4.93666 13.4029L4.93755 13.4038L11.9961 19.9536C11.9961 19.9537 11.9961 19.9537 11.9961 19.9537C12.131 20.0788 12.3109 20.15 12.5 20.15C12.6891 20.15 12.869 20.0788 13.0039 19.9537C13.0039 19.9537 13.0039 19.9537 13.0039 19.9536L20.0625 13.4038L20.0633 13.4029C21.0769 12.4651 21.65 11.1499 21.65 9.77536V9.55017C21.65 7.25578 19.9819 5.2934 17.697 4.91425L4.93666 13.4029ZM4.93666 13.4029C3.92315 12.4651 3.35 11.1499 3.35 9.77536V9.55017C3.35 7.25578 5.01812 5.2934 7.30298 4.91425L4.93666 13.4029ZM12.5 7.28921L11.9008 6.69362L11.432 6.2277C10.3531 5.15534 8.81565 4.66373 7.30318 4.91422L12.5 7.28921ZM12.5 7.28921L13.0992 6.69362M12.5 7.28921L13.0992 6.69362M13.0992 6.69362L13.568 6.2277C14.6469 5.15534 16.1844 4.66373 17.6968 4.91422L13.0992 6.69362Z" stroke="#162E3A" stroke-width="1.7"/>
</svg>
