<svg width="68" height="68" viewBox="0 0 68 68" fill="none" xmlns="http://www.w3.org/2000/svg">
<path d="M45.9089 40.3452C46.086 47.1715 40.6926 52.8467 33.8663 53.0238C27.04 53.2009 21.3648 47.8074 21.1877 40.9811C21.1796 40.7718 21.1796 40.5625 21.1877 40.3532C21.1877 29.9528 33.5523 14.666 33.5523 14.666C33.5523 14.666 45.9089 29.9206 45.9089 40.3452Z" fill="url(#paint0_linear_3118_582)"/>
<path d="M33.552 61.469H5.63493V14.6589V5.63493V0H0V67.1039H33.552V61.469Z" fill="url(#paint1_linear_3118_582)"/>
<path d="M33.5508 0V5.63493H61.4678V47.4541V67.1039H67.1027V0H33.5508Z" fill="url(#paint2_linear_3118_582)"/>
<defs>
<linearGradient id="paint0_linear_3118_582" x1="21.1816" y1="33.847" x2="45.9131" y2="33.847" gradientUnits="userSpaceOnUse">
<stop stop-color="#016192"/>
<stop offset="1" stop-color="#014B7B"/>
</linearGradient>
<linearGradient id="paint1_linear_3118_582" x1="0" y1="33.552" x2="33.552" y2="33.552" gradientUnits="userSpaceOnUse">
<stop stop-color="#016192"/>
<stop offset="1" stop-color="#014B7B"/>
</linearGradient>
<linearGradient id="paint2_linear_3118_582" x1="33.5508" y1="33.552" x2="67.1027" y2="33.552" gradientUnits="userSpaceOnUse">
<stop stop-color="#016192"/>
<stop offset="1" stop-color="#014B7B"/>
</linearGradient>
</defs>
</svg>
