<svg width="33" height="32" viewBox="0 0 33 32" fill="none" xmlns="http://www.w3.org/2000/svg">
<g clip-path="url(#clip0_2760_43400)">
<path d="M12.5 16.0007L15.1667 18.6673L20.5 13.334" stroke="white" stroke-width="2" stroke-linecap="round" stroke-linejoin="round"/>
<path d="M16.4985 4C19.6129 6.75543 23.6778 8.19009 27.8318 8C28.4366 10.0574 28.6217 12.2153 28.376 14.3456C28.1303 16.4759 27.4589 18.535 26.4017 20.4007C25.3445 22.2664 23.923 23.9005 22.2217 25.206C20.5205 26.5114 18.5742 27.4616 16.4985 28C14.4228 27.4616 12.4764 26.5114 10.7752 25.206C9.07396 23.9005 7.65249 22.2664 6.59527 20.4007C5.53805 18.535 4.86666 16.4759 4.62098 14.3456C4.3753 12.2153 4.56035 10.0574 5.16514 8C9.31918 8.19009 13.384 6.75543 16.4985 4" stroke="white" stroke-width="2" stroke-linecap="round" stroke-linejoin="round"/>
</g>
<defs>
<clipPath id="clip0_2760_43400">
<rect width="32" height="32" fill="white" transform="translate(0.5)"/>
</clipPath>
</defs>
</svg>
