<svg width="28" height="23" viewBox="0 0 28 23" fill="none" xmlns="http://www.w3.org/2000/svg">
<path d="M3.58812 12.9424L3.58901 12.9433L13.118 21.8049C13.3555 22.0257 13.6706 22.15 14 22.15C14.3294 22.15 14.6445 22.0257 14.882 21.8049L24.411 12.9433L24.4119 12.9424C25.8412 11.617 26.65 9.75762 26.65 7.81372V7.50905C26.65 4.25535 24.29 1.4773 21.0643 0.940908L3.58812 12.9424ZM3.58812 12.9424C2.1588 11.617 1.35 9.75762 1.35 7.81372V7.50905C1.35 4.25535 3.71003 1.47731 6.9357 0.940908L3.58812 12.9424ZM14 4.02842L13.4001 3.43088L12.7673 2.80052C11.2426 1.28171 9.07107 0.586461 6.93589 0.940876L14 4.02842ZM14 4.02842L14.5999 3.43088M14 4.02842L14.5999 3.43088M14.5999 3.43088L15.2327 2.80052C16.7574 1.28171 18.9289 0.58646 21.0641 0.940876L14.5999 3.43088Z" stroke="#162E3A" stroke-width="1.7"/>
</svg>
