<svg width="28" height="23" viewBox="0 0 28 23" fill="none" xmlns="http://www.w3.org/2000/svg">
<path d="M3.01016 13.5657L12.5393 22.4274C12.9348 22.7951 13.4568 23 14 23C14.5432 23 15.0652 22.7951 15.4607 22.4274L24.9898 13.5657C26.593 12.0791 27.5 9.99369 27.5 7.81372V7.50905C27.5 3.83723 24.8369 0.706475 21.2035 0.102385C18.7988 -0.296839 16.352 0.485851 14.6328 2.19831L14 2.82867L13.3672 2.19831C11.648 0.485851 9.20117 -0.296839 6.79648 0.102385C3.16309 0.706475 0.5 3.83723 0.5 7.50905V7.81372C0.5 9.99369 1.40703 12.0791 3.01016 13.5657Z" fill="#005C8F"/>
</svg>
