<svg width="24" height="24" viewBox="0 0 24 24" fill="none" xmlns="http://www.w3.org/2000/svg">
<path d="M18.4294 9.14342C18.4294 12.7006 12.0008 21.2863 12.0008 21.2863C12.0008 21.2863 5.57227 12.7006 5.57227 9.14342C5.57227 7.43845 6.24956 5.80332 7.45515 4.59773C8.66074 3.39214 10.2959 2.71484 12.0008 2.71484C13.7058 2.71484 15.3409 3.39214 16.5465 4.59773C17.7521 5.80332 18.4294 7.43845 18.4294 9.14342V9.14342Z" stroke="url(#paint0_linear_2955_128)" stroke-width="1.7" stroke-linecap="round" stroke-linejoin="round"/>
<path d="M12.0003 11.2857C13.1837 11.2857 14.1431 10.3263 14.1431 9.14286C14.1431 7.95939 13.1837 7 12.0003 7C10.8168 7 9.85742 7.95939 9.85742 9.14286C9.85742 10.3263 10.8168 11.2857 12.0003 11.2857Z" stroke="url(#paint1_linear_2955_128)" stroke-width="1.7" stroke-linecap="round" stroke-linejoin="round"/>
<defs>
<linearGradient id="paint0_linear_2955_128" x1="5.57227" y1="12.0006" x2="18.4294" y2="12.0006" gradientUnits="userSpaceOnUse">
<stop stop-color="#016192"/>
<stop offset="1" stop-color="#014B7B"/>
</linearGradient>
<linearGradient id="paint1_linear_2955_128" x1="9.85742" y1="9.14286" x2="14.1431" y2="9.14286" gradientUnits="userSpaceOnUse">
<stop stop-color="#016192"/>
<stop offset="1" stop-color="#014B7B"/>
</linearGradient>
</defs>
</svg>
