<svg width="215" height="36" viewBox="0 0 215 36" fill="none" xmlns="http://www.w3.org/2000/svg">
<path fill-rule="evenodd" clip-rule="evenodd" d="M117.556 13.4118C114.078 10.8591 110.196 10.2735 106.076 11.3262C100.642 12.7147 96.9296 17.5595 96.9166 23.1605C96.9531 23.6647 96.9685 24.1716 97.029 24.6731C97.5026 28.6058 99.4037 31.6152 102.756 33.6354C105.297 35.1658 108.072 35.6813 110.997 35.3942C113.951 35.1044 116.557 33.979 118.691 31.8732C121.51 29.0927 122.64 25.6601 122.232 21.7125C121.876 18.2587 120.327 15.445 117.556 13.4118ZM111.849 29.5065C107.685 30.9223 103.429 28.3087 103.161 23.6224C103.041 21.5254 103.605 19.6669 105.114 18.1837C106.675 16.649 108.589 16.13 110.691 16.4783C114.001 17.0272 116.103 19.653 116.117 23.125C116.129 26.1073 114.507 28.6024 111.849 29.5065ZM158.433 13.4142C154.956 10.8609 151.074 10.273 146.954 11.3253C141.518 12.7134 137.806 17.5538 137.835 23.1544C137.835 23.4743 137.827 23.7943 137.838 24.1139C137.845 24.3126 137.879 24.5108 137.903 24.7091C138.344 28.3409 140.032 31.2185 143.026 33.2541C145.676 35.056 148.633 35.6889 151.788 35.4017C154.773 35.1298 157.406 34.0011 159.562 31.8759C162.382 29.0971 163.512 25.6641 163.107 21.7168C162.752 18.2628 161.203 15.4481 158.433 13.4142ZM154.303 28.6782C150.799 31.2452 145.005 29.7489 144.12 24.3972C144.051 23.978 144.03 23.5515 143.991 23.1869C144.104 20.3373 145.195 18.1262 147.785 16.9642C151.548 15.2749 156.202 17.257 156.884 21.9518C157.279 24.6663 156.558 27.0257 154.303 28.6782ZM89.8612 11.6069C88.2249 12.3612 87.029 13.584 86.2028 15.2009L85.8583 10.8976L80.289 11.4144C81.1015 19.242 80.623 27.0717 80.7941 34.8898H86.8116V34.3678C86.8116 31.0234 86.8127 27.6789 86.8147 24.3344C86.8159 23.6823 86.819 23.0262 86.8876 22.3791C87.0734 20.6263 87.6989 19.0789 89.0795 17.9322C90.2742 16.9396 91.6807 16.6085 93.191 16.6483C93.6967 16.6617 94.2011 16.7105 94.734 16.7446C94.8328 14.7997 94.9303 12.8799 95.0291 10.9404C93.2083 10.7144 91.4949 10.8538 89.8612 11.6069ZM43.0846 30.5372C42.2301 30.6106 41.6423 30.1239 41.5299 29.2629C41.4941 28.9855 41.4761 28.7061 41.4762 28.4263C41.4731 22.8152 41.4725 17.2039 41.4743 11.5926V11.0526C39.3145 11.2255 37.2164 11.394 35.1073 11.5631C35.1073 11.778 35.0986 11.9615 35.1085 12.1439C35.203 13.94 35.3506 15.7349 35.3851 17.532C35.4401 20.41 35.4191 23.2889 35.4345 26.1675C35.4432 27.7402 35.3938 29.3166 35.4901 30.8839C35.6086 32.8113 36.4706 34.3078 38.3445 34.9888C40.0993 35.6261 41.7231 35.5707 45.245 34.6389L44.1923 30.3622C43.8045 30.4251 43.4464 30.5062 43.0846 30.5372ZM74.3011 30.5372C73.4465 30.6106 72.8587 30.1239 72.7458 29.2629C72.7102 28.9855 72.6924 28.7061 72.6926 28.4263V28.2768C72.6926 28.2741 72.6964 28.2705 72.6964 28.2675C72.6957 19.4828 72.6955 10.6983 72.6957 1.91394V1.37537C70.6489 1.49725 68.6645 1.61563 66.6399 1.73613V13.4617C66.1867 13.139 65.7965 12.8297 65.3766 12.5683C63.1291 11.1679 60.6736 10.688 58.0686 10.9021C55.3957 11.1216 53.0463 12.1352 51.1632 14.0725C47.9284 17.4003 46.9992 21.4736 47.8166 25.9663C48.7712 31.2093 52.9679 34.9967 58.0346 35.4178C61.2645 35.6862 64.1578 34.8351 66.6263 32.6468C66.7411 32.5454 66.885 32.4083 66.9708 32.3278C67.3629 33.5506 68.1884 34.49 69.561 34.9888C71.3158 35.6261 72.9396 35.5707 76.4615 34.6389L75.4088 30.3622C75.0204 30.4251 74.6629 30.5062 74.3011 30.5372ZM65.0555 27.7838C63.775 29.2392 62.127 29.8792 60.2253 29.877C56.8726 29.8738 54.3553 27.6309 53.883 24.2289C53.8336 23.8742 53.8157 23.5149 53.7885 23.2164C53.8521 20.6799 54.7202 18.6236 56.8689 17.311C60.4729 15.1096 65.9798 16.8042 66.6553 22.1054C66.9251 24.2272 66.4824 26.1615 65.0555 27.7838ZM134.39 30.5372C133.536 30.6106 132.948 30.1239 132.836 29.2629C132.802 28.9705 132.786 28.6762 132.789 28.3819V28.3804C132.787 19.5962 132.788 10.741 132.788 1.95648V1.43093C130.745 1.51521 128.769 1.59704 126.735 1.68119V2.12823C126.735 10.1337 126.737 18.139 126.741 26.1444C126.741 26.1523 126.74 26.1599 126.74 26.1675C126.746 27.1915 126.73 28.2171 126.743 29.2408C126.749 29.789 126.762 30.3371 126.796 30.8835C126.914 32.8109 127.776 34.3075 129.65 34.9885C131.405 35.6258 133.029 35.5704 136.551 34.6386L135.498 30.3619C135.11 30.4251 134.752 30.5062 134.39 30.5372ZM38.4945 7.62776C40.6476 7.65905 42.3023 6.069 42.3282 3.94389C42.3566 1.65673 40.8149 0.0303941 38.5909 0.000362538C36.4761 -0.02823 34.793 1.6379 34.7751 3.77727C34.7664 4.78708 35.1529 5.75924 35.85 6.48091C36.5471 7.20258 37.498 7.61496 38.4945 7.62776ZM183.418 28.6782C179.915 31.2452 174.121 29.7489 173.236 24.3972C173.167 23.978 173.145 23.5515 173.107 23.1871C173.219 20.3373 174.311 18.1262 176.9 16.9642C179.39 15.8469 182.268 16.3362 184.129 18.1537L188.392 14.0913C188.124 13.857 187.843 13.6314 187.549 13.4142C184.071 10.8609 180.189 10.273 176.069 11.3253C170.633 12.7134 166.921 17.5538 166.95 23.1544C166.95 23.4741 166.942 23.7943 166.953 24.1139C166.96 24.3126 166.994 24.5108 167.018 24.7091C167.46 28.3409 169.148 31.2185 172.142 33.2541C174.791 35.056 177.748 35.6891 180.904 35.4017C183.874 35.1312 186.497 34.0112 188.647 31.9054L184.245 27.9739C183.987 28.2291 183.71 28.4645 183.418 28.6782ZM207.443 23.4986C208.193 22.8227 208.879 22.0759 209.49 21.2685C211.629 18.4368 212.906 14.7346 212.906 11.3651H207.332C207.332 13.037 206.737 15.6108 205.068 17.8204C203.417 20.0075 201.127 21.3293 198.266 21.7777V1.37618C196.24 1.497 194.264 1.61444 192.249 1.7345V34.8843H198.288V27.4896C199.725 27.3357 201.138 27.003 202.496 26.4991C204.237 29.1972 205.989 31.888 207.728 34.5874C207.884 34.8296 208.046 34.9155 208.328 34.9138C210.401 34.9013 212.473 34.9075 214.546 34.9075H215C212.842 31.6458 209.867 27.1596 207.443 23.4986ZM16.8692 22.866H23.5412V28.6387C21.2487 29.3764 18.8473 29.7899 17.1318 29.7899C10.5519 29.7899 6.3813 24.7721 6.3813 18.582C6.3813 11.6063 11.1945 7.37431 17.1318 7.37431C20.0436 7.37431 22.6832 8.58289 24.6191 10.5431L28.4911 6.60882C25.6365 3.42371 21.5186 1.47504 16.7272 1.47504C7.48898 1.47504 0 9.08411 0 18.4704C0 27.8567 7.48898 35.4658 16.7272 35.4658C19.0278 35.4628 21.3182 35.1572 23.5412 34.5565C25.7739 33.9523 27.8301 33.0717 29.5589 31.9929V17.3972H16.1896L16.8692 22.866Z" fill="url(#paint0_linear_2955_173)"/>
<defs>
<linearGradient id="paint0_linear_2955_173" x1="0" y1="17.735" x2="215" y2="17.735" gradientUnits="userSpaceOnUse">
<stop stop-color="#016192"/>
<stop offset="1" stop-color="#014B7B"/>
</linearGradient>
</defs>
</svg>
