<svg width="110" height="18" viewBox="0 0 110 18" fill="none" xmlns="http://www.w3.org/2000/svg">
<path fill-rule="evenodd" clip-rule="evenodd" d="M60.1451 6.80608C58.3654 5.51067 56.3793 5.21349 54.2716 5.74769C51.4911 6.45235 49.5919 8.9109 49.5853 11.7533C49.6039 12.0091 49.6118 12.2664 49.6427 12.5209C49.885 14.5166 50.8577 16.0438 52.573 17.069C53.8726 17.8456 55.2926 18.1072 56.7893 17.9615C58.3006 17.8144 59.634 17.2433 60.7257 16.1747C62.1678 14.7637 62.7459 13.0217 62.5374 11.0185C62.3552 9.26575 61.5626 7.83787 60.1451 6.80608ZM57.2253 14.9737C55.0948 15.6921 52.917 14.3658 52.7799 11.9877C52.7187 10.9235 53.0071 9.98035 53.7791 9.22768C54.5777 8.44887 55.5573 8.18547 56.6326 8.36223C58.3262 8.6408 59.4015 9.97333 59.4088 11.7353C59.4151 13.2487 58.5852 14.5149 57.2253 14.9737ZM81.0589 6.80732C79.2798 5.51156 77.2937 5.21323 75.1857 5.74724C72.4045 6.45165 70.5054 8.90801 70.5202 11.7502C70.5202 11.9125 70.5161 12.0749 70.5218 12.2371C70.5253 12.3379 70.5426 12.4385 70.5549 12.5391C70.7808 14.3822 71.6445 15.8424 73.1763 16.8755C74.5318 17.7899 76.0446 18.111 77.6592 17.9653C79.1863 17.8273 80.5332 17.2545 81.6364 16.1761C83.0791 14.7659 83.6575 13.0237 83.45 11.0206C83.2683 9.26781 82.476 7.83943 81.0589 6.80732ZM78.9455 14.5533C77.1531 15.856 74.1887 15.0967 73.7361 12.3808C73.7007 12.1681 73.6896 11.9517 73.67 11.7667C73.7275 10.3206 74.286 9.1985 75.6109 8.60883C77.5363 7.75157 79.9173 8.75742 80.2663 11.1399C80.4685 12.5174 80.0995 13.7147 78.9455 14.5533ZM45.9755 5.89018C45.1383 6.27296 44.5264 6.89349 44.1038 7.71398L43.9275 5.53023L41.0781 5.79249C41.4938 9.76477 41.249 13.7381 41.3365 17.7055H44.4153V17.4406C44.4153 15.7434 44.4158 14.0462 44.4168 12.349C44.4175 12.0181 44.419 11.6851 44.4541 11.3567C44.5492 10.4672 44.8692 9.68199 45.5756 9.10007C46.1868 8.59632 46.9064 8.42833 47.6791 8.44853C47.9378 8.45532 48.1959 8.48009 48.4685 8.49739C48.5191 7.5104 48.569 6.53617 48.6195 5.55195C47.688 5.43726 46.8113 5.508 45.9755 5.89018ZM22.0433 15.4967C21.6061 15.534 21.3053 15.287 21.2478 14.8501C21.2295 14.7093 21.2204 14.5675 21.2204 14.4255C21.2188 11.578 21.2185 8.73048 21.2194 5.88288V5.60887C20.1144 5.6966 19.041 5.78214 17.9619 5.86792C17.9619 5.97699 17.9574 6.07011 17.9625 6.16266C18.0108 7.07412 18.0863 7.98497 18.104 8.89697C18.1321 10.3575 18.1214 11.8184 18.1293 13.2792C18.1337 14.0773 18.1084 14.8773 18.1577 15.6726C18.2184 16.6507 18.6594 17.4102 19.6181 17.7558C20.5159 18.0792 21.3467 18.0511 23.1486 17.5782L22.61 15.4079C22.4116 15.4398 22.2284 15.481 22.0433 15.4967ZM38.0145 15.4967C37.5773 15.534 37.2766 15.287 37.2188 14.8501C37.2005 14.7093 37.1915 14.5675 37.1916 14.4255V14.3496C37.1916 14.3483 37.1935 14.3465 37.1935 14.3449C37.1932 9.88696 37.1931 5.42907 37.1932 0.971267V0.69796C36.146 0.759809 35.1307 0.819882 34.0948 0.881033V6.83139C33.863 6.66765 33.6633 6.51071 33.4485 6.37803C32.2986 5.66739 31.0423 5.42383 29.7095 5.53248C28.342 5.6439 27.14 6.15825 26.1765 7.1414C24.5215 8.83013 24.0461 10.8972 24.4643 13.1771C24.9527 15.8378 27.0999 17.7598 29.6921 17.9735C31.3446 18.1097 32.8249 17.6778 34.0879 16.5673C34.1466 16.5158 34.2202 16.4462 34.2642 16.4054C34.4647 17.0259 34.8871 17.5027 35.5893 17.7558C36.4871 18.0792 37.3179 18.0511 39.1198 17.5782L38.5812 15.4079C38.3825 15.4398 38.1996 15.481 38.0145 15.4967ZM33.2842 14.0994C32.6291 14.838 31.7859 15.1628 30.813 15.1617C29.0976 15.1601 27.8097 14.0218 27.568 12.2955C27.5428 12.1154 27.5336 11.9331 27.5197 11.7816C27.5522 10.4945 27.9964 9.45091 29.0957 8.78482C30.9396 7.66766 33.7571 8.52765 34.1027 11.2178C34.2408 12.2946 34.0143 13.2762 33.2842 14.0994ZM68.7578 15.4967C68.3206 15.534 68.0199 15.287 67.9624 14.8501C67.9452 14.7017 67.9372 14.5523 67.9387 14.4029V14.4022C67.9377 9.94447 67.938 5.45073 67.938 0.992857V0.726154C66.8927 0.768922 65.8819 0.810451 64.8413 0.853155V1.08001C64.8413 5.14253 64.8423 9.20502 64.8444 13.2675C64.8444 13.2715 64.8438 13.2754 64.8438 13.2792C64.8467 13.7989 64.8384 14.3193 64.8451 14.8388C64.8485 15.117 64.8549 15.3952 64.8722 15.6725C64.9329 16.6506 65.3739 17.41 66.3326 17.7556C67.2304 18.079 68.0612 18.0509 69.8631 17.5781L69.3245 15.4077C69.1261 15.4398 68.9429 15.481 68.7578 15.4967ZM19.6949 3.87086C20.7964 3.88674 21.643 3.07984 21.6563 2.00141C21.6708 0.840741 20.882 0.0154241 19.7442 0.000183977C18.6622 -0.0143259 17.8011 0.831185 17.7919 1.91685C17.7875 2.4293 17.9852 2.92264 18.3419 3.28887C18.6985 3.65509 19.185 3.86436 19.6949 3.87086ZM93.8418 14.5533C92.0494 15.856 89.085 15.0967 88.6323 12.3808C88.5969 12.1681 88.5858 11.9517 88.5666 11.7668C88.6237 10.3206 89.1823 9.1985 90.5071 8.60883C91.7808 8.04184 93.2533 8.29012 94.2057 9.21247L96.3867 7.15089C96.2495 7.03204 96.1057 6.91752 95.9551 6.80732C94.176 5.51156 92.1899 5.21323 90.0819 5.74724C87.3008 6.45165 85.4016 8.90801 85.4164 11.7502C85.4164 11.9124 85.4123 12.0749 85.418 12.2371C85.4215 12.3379 85.4389 12.4385 85.4512 12.5391C85.6774 14.3822 86.5407 15.8424 88.0725 16.8755C89.428 17.7899 90.9409 18.1112 92.5554 17.9653C94.0752 17.828 95.4168 17.2596 96.5171 16.191L94.2648 14.1959C94.1328 14.3254 93.9914 14.4449 93.8418 14.5533ZM106.133 11.9249C106.517 11.5818 106.868 11.2029 107.181 10.7931C108.276 9.35614 108.929 7.47738 108.929 5.76747H106.077C106.077 6.6159 105.773 7.92201 104.919 9.04333C104.074 10.1532 102.902 10.824 101.439 11.0515V0.698373C100.402 0.759682 99.3909 0.819278 98.3598 0.880207V17.7028H101.45V13.9502C102.185 13.872 102.908 13.7032 103.602 13.4475C104.493 14.8167 105.39 16.1822 106.28 17.5521C106.359 17.675 106.442 17.7186 106.586 17.7177C107.647 17.7114 108.707 17.7145 109.768 17.7145H110C108.896 16.0593 107.374 13.7827 106.133 11.9249ZM8.63077 11.6038H12.0443V14.5333C10.8714 14.9076 9.64282 15.1175 8.76509 15.1175C5.39862 15.1175 3.26485 12.5711 3.26485 9.4298C3.26485 5.88983 5.72741 3.74224 8.76509 3.74224C10.2548 3.74224 11.6053 4.35556 12.5958 5.3503L14.5768 3.35378C13.1164 1.73743 11.0095 0.748539 8.55808 0.748539C3.83157 0.748539 0 4.60991 0 9.37319C0 14.1365 3.83157 17.9978 8.55808 17.9978C9.73513 17.9963 10.907 17.8412 12.0443 17.5364C13.1867 17.2298 14.2386 16.7829 15.1232 16.2354V8.82858H8.28303L8.63077 11.6038Z" fill="url(#paint0_linear_2955_46115)"/>
<defs>
<linearGradient id="paint0_linear_2955_46115" x1="0" y1="9" x2="110" y2="9" gradientUnits="userSpaceOnUse">
<stop stop-color="#016192"/>
<stop offset="1" stop-color="#014B7B"/>
</linearGradient>
</defs>
</svg>
