<svg width="333" height="68" viewBox="0 0 333 68" fill="none" xmlns="http://www.w3.org/2000/svg">
<g clip-path="url(#clip0_2975_356)">
<path d="M89.4355 53.2873C89.4355 56.0323 87.3827 58.0367 84.5572 58.0367C83.4383 58.0367 82.6172 57.763 82.1181 57.4893L81.8847 55.4768C82.1262 55.7103 83.0358 56.3221 84.3962 56.3221C86.0787 56.3221 87.1412 55.4205 87.423 54.0359H84.195L84.0823 52.3454H87.4149C87.0849 51.0574 86.0223 50.2203 84.4284 50.2203C82.9392 50.2203 82.0698 50.9125 81.7559 51.1701L82.0135 49.0852C82.5286 48.7954 83.3739 48.5137 84.4848 48.5137C87.3988 48.5137 89.4355 50.341 89.4355 53.2873Z" fill="white"/>
<path d="M93.486 48.6738H100.32V57.8749H98.4286V50.3563H95.2409L94.9994 53.9143C94.8867 55.5645 94.7257 56.9894 92.6891 57.9795L91.6426 56.4983C92.6327 56.0234 92.9789 55.637 93.0916 54.0431L93.486 48.6738Z" fill="white"/>
<path d="M110.642 56.2407L110.529 57.8749H105.949C104.798 57.8749 104.113 57.4724 104.113 56.0234V48.6738H110.457L110.344 50.2999H106.005V52.3526H109.724L109.611 53.9626H106.005V55.8141C106.005 56.0878 106.102 56.2488 106.44 56.2488H110.642V56.2407Z" fill="white"/>
<path d="M113.867 57.8749V48.6738H115.759V57.8749H113.867ZM118.27 53.0691L122.022 57.8829H119.583L116.025 53.3186V53.1496L119.671 48.6819H121.869L118.27 53.0691Z" fill="white"/>
<path d="M131.678 50.3563H128.804V57.8829H126.88V50.3563H123.797L123.91 48.6738H131.79L131.678 50.3563Z" fill="white"/>
<path d="M138.086 48.6738C140.703 48.6738 142.023 49.9377 142.023 51.9018C142.023 53.9143 140.485 55.162 138.014 55.162C137.539 55.162 137.064 55.1298 136.581 55.0654V57.8829H134.689V48.6738H138.086ZM140.043 51.9018C140.043 50.968 139.294 50.308 137.99 50.308H136.581V53.4233C137.056 53.4957 137.531 53.5199 137.99 53.5199C139.326 53.5279 140.043 52.8517 140.043 51.9018Z" fill="white"/>
<path d="M144.607 53.287C144.607 50.6145 146.636 48.5215 149.462 48.5215C152.247 48.5215 154.259 50.5581 154.259 53.287C154.259 55.9998 152.247 58.0365 149.462 58.0365C146.628 58.0365 144.607 55.9515 144.607 53.287ZM152.343 53.287C152.343 51.508 151.112 50.2281 149.453 50.2281C147.763 50.2281 146.507 51.5241 146.507 53.287C146.507 55.0499 147.755 56.3299 149.453 56.3299C151.112 56.3299 152.343 55.066 152.343 53.287Z" fill="white"/>
<path d="M164.129 50.3563H161.255V57.8829H159.331V50.3563H156.248L156.361 48.6738H164.242L164.129 50.3563Z" fill="white"/>
<path d="M173.632 56.2407L173.519 57.8749H168.939C167.788 57.8749 167.104 57.4724 167.104 56.0234V48.6738H173.447L173.334 50.2999H168.995V52.3526H172.714L172.602 53.9626H168.995V55.8141C168.995 56.0878 169.092 56.2488 169.43 56.2488H173.632V56.2407Z" fill="white"/>
<path d="M184.818 57.8749H182.548L180.221 54.502L177.911 57.8749H175.77L179.102 53.1657L176.043 48.6738H178.313L180.334 51.8052L182.459 48.6738H184.584L181.485 53.1254L184.818 57.8749Z" fill="white"/>
<path d="M193.956 48.6738H195.847V57.8749H193.956V54.0431H189.472V57.8749H187.58V48.6738H189.472V52.3526H193.956V48.6738Z" fill="white"/>
<path d="M206.53 48.6738H207.81V57.8749H205.959V51.9984L200.944 57.9715H199.68V48.6738H201.515V54.6629L206.53 48.6738Z" fill="white"/>
<path d="M217.162 48.6738H219.046V57.8749H217.162V54.7998C216.558 55.0171 215.898 55.1459 215.166 55.1459C212.751 55.1459 211.133 54.0834 211.133 51.5718V48.6738H213.057V51.3464C213.057 52.6988 213.83 53.4152 215.383 53.4152C216.059 53.4152 216.631 53.2864 217.162 53.053V48.6738Z" fill="white"/>
<path d="M229.384 56.2407L229.271 57.8749H224.691C223.54 57.8749 222.855 57.4724 222.855 56.0234V48.6738H229.199L229.086 50.2999H224.747V52.3526H228.466L228.354 53.9626H224.747V55.8141C224.747 56.0878 224.844 56.2488 225.182 56.2488H229.384V56.2407Z" fill="white"/>
<path d="M231.85 53.2709C231.85 50.5259 233.902 48.5215 236.72 48.5215C237.839 48.5215 238.66 48.7952 239.159 49.0689L239.4 51.0814C239.143 50.8479 238.241 50.2361 236.913 50.2361C234.973 50.2361 233.757 51.516 233.757 53.3514C233.757 55.1143 235.021 56.3379 236.889 56.3379C238.354 56.3379 239.199 55.6456 239.513 55.388L239.272 57.473C238.74 57.7628 237.911 58.0445 236.784 58.0445C233.975 58.0365 231.85 56.2091 231.85 53.2709Z" fill="white"/>
<path d="M242.717 57.8749V48.6738H244.609V57.8749H242.717ZM247.128 53.0691L250.879 57.8829H248.44L244.882 53.3186V53.1496L248.529 48.6819H250.726L247.128 53.0691Z" fill="white"/>
<path d="M260.415 48.6738H261.695V57.8749H259.843V51.9984L254.828 57.9715H253.564V48.6738H255.4V54.6629L260.415 48.6738Z" fill="white"/>
<path d="M272.37 48.6744H273.65V57.8754H271.798V51.999L266.783 57.972H265.52V48.6744H267.355V54.6635L272.37 48.6744ZM267.146 45.6879L268.579 45.543C268.579 46.1628 268.965 46.5009 269.553 46.5009C270.188 46.5009 270.583 46.1548 270.583 45.543L271.992 45.6879C271.992 46.9678 270.913 47.813 269.504 47.813C268.096 47.813 267.146 46.9839 267.146 45.6879Z" fill="white"/>
<path d="M288.147 55.018C288.147 56.8695 286.698 58.0448 284.387 58.0448C283.421 58.0448 282.504 57.7871 281.948 57.4732L281.65 55.6459C282.48 56.2094 283.26 56.4509 284.146 56.4509C285.466 56.4509 286.255 55.9598 286.255 55.0904C286.255 54.1164 285.394 53.883 284.363 53.883H283.413L283.285 52.2891H284.178C285.313 52.2891 285.812 51.8866 285.812 51.1701C285.812 50.4698 285.208 50.1076 284.106 50.1076C283.333 50.1076 282.584 50.2927 281.819 50.6549L281.964 49.0289C282.455 48.7954 283.462 48.5137 284.403 48.5137C286.488 48.5137 287.72 49.4072 287.72 51.0252C287.72 51.798 287.285 52.4581 286.657 52.8043C287.583 53.1826 288.147 53.9876 288.147 55.018Z" fill="white"/>
<path d="M297.371 57.8746L296.655 56.0634H292.903L292.187 57.8746H290.223L294.127 48.6816H295.487L299.367 57.8746H297.371ZM293.499 54.55H296.067L294.787 51.2898L293.499 54.55Z" fill="white"/>
<path d="M309.273 55.1942C309.273 56.9894 308.098 57.8829 305.514 57.8829H302.197V48.6738H305.82C307.776 48.6738 308.838 49.6076 308.838 51.0324C308.838 51.9099 308.492 52.5941 307.808 52.9725C308.742 53.3106 309.273 54.0753 309.273 55.1942ZM305.498 50.2114H304.089V52.4814H305.498C306.464 52.4814 306.931 52.0789 306.931 51.3464C306.931 50.6139 306.464 50.2114 305.498 50.2114ZM305.699 56.3454C306.834 56.3454 307.381 55.9107 307.381 55.154C307.381 54.3812 306.834 53.9304 305.715 53.9304H304.089V56.3454H305.699Z" fill="white"/>
<path d="M312.039 53.287C312.039 50.6145 314.068 48.5215 316.893 48.5215C319.678 48.5215 321.691 50.5581 321.691 53.287C321.691 55.9998 319.678 58.0365 316.893 58.0365C314.068 58.0365 312.039 55.9515 312.039 53.287ZM319.783 53.287C319.783 51.508 318.551 50.2281 316.893 50.2281C315.203 50.2281 313.947 51.5241 313.947 53.287C313.947 55.0499 315.195 56.3299 316.893 56.3299C318.543 56.3299 319.783 55.066 319.783 53.287Z" fill="white"/>
<path d="M333.259 60.0725H331.464V57.8749H325.804V60.0725H324.025V56.2971C325.144 55.9348 325.346 55.2747 325.49 53.3267L325.821 48.6738H332.357V56.2971H333.251V57.8749L333.259 60.0725ZM330.546 56.2971V50.3402H327.471L327.237 53.4716C327.149 54.7354 327.004 55.6692 326.432 56.2971H330.546Z" fill="white"/>
<path d="M118.475 10.6699H112.768V40.4304H118.475V10.6699Z" fill="white"/>
<path d="M136.491 10.6699H125.816V40.4304H136.491C146.287 40.4304 152.695 34.4413 152.695 25.53C152.695 16.6188 146.287 10.6699 136.491 10.6699ZM136.169 35.5038H131.524V15.5884H136.169C143.043 15.5884 146.939 19.6697 146.939 25.6186C146.939 31.5111 143.035 35.5038 136.169 35.5038Z" fill="white"/>
<path d="M201.019 10.2031C191.922 10.2031 185.418 16.9328 185.418 25.5704C185.418 34.2079 191.914 40.9376 201.019 40.9376C209.978 40.9376 216.474 34.3448 216.474 25.5704C216.474 16.796 209.978 10.2031 201.019 10.2031ZM201.019 35.7857C195.352 35.7857 191.174 31.4709 191.174 25.5704C191.174 19.6698 195.352 15.3551 201.019 15.3551C206.493 15.3551 210.679 19.6296 210.679 25.5704C210.679 31.5595 206.501 35.7857 201.019 35.7857Z" fill="white"/>
<path d="M227.76 10.6699H222.045V40.4223H240.713L241.18 35.5038H227.76V10.6699Z" fill="white"/>
<path d="M257.794 10.2031C248.698 10.2031 242.193 16.9328 242.193 25.5704C242.193 34.2079 248.69 40.9376 257.794 40.9376C266.754 40.9376 273.25 34.3448 273.25 25.5704C273.25 16.796 266.754 10.2031 257.794 10.2031ZM257.794 35.7857C252.127 35.7857 247.949 31.4709 247.949 25.5704C247.949 19.6698 252.127 15.3551 257.794 15.3551C263.268 15.3551 267.454 19.6296 267.454 25.5704C267.454 31.5595 263.268 35.7857 257.794 35.7857Z" fill="white"/>
<path d="M325.617 40.4228H332.999L321.576 26.2389C326.575 23.1719 330.254 17.8026 330.254 10.6543H324.812C324.812 16.4502 320.836 22.552 313.438 23.5663V10.6704H307.73V40.4309H313.438V29.0483C314.299 28.9517 315.161 28.7907 316.006 28.5814L325.617 40.4228Z" fill="white"/>
<path d="M95.3163 29.6197H101.466V34.8602C99.3493 35.5283 97.1356 35.9067 95.5578 35.9067C89.4882 35.9067 85.6403 31.3504 85.6403 25.7316C85.6403 19.3963 90.0758 15.5565 95.5578 15.5565C98.2465 15.5565 100.678 16.6513 102.465 18.4304L106.039 14.8562C103.406 11.9663 99.6069 10.1953 95.1875 10.1953C86.6627 10.1953 79.7559 17.1021 79.7559 25.627C79.7559 34.1518 86.6627 41.0586 95.1875 41.0586C97.3449 41.0586 99.4861 40.7608 101.474 40.2295C103.535 39.6821 105.427 38.8851 107.029 37.903V31.7771V29.6117V28.9918V24.6449H94.6965L95.3163 29.6197Z" fill="white"/>
<path d="M292.905 15.5565C295.594 15.5565 298.025 16.6513 299.812 18.4304L303.386 14.8562C300.754 11.9663 296.955 10.1953 292.535 10.1953C284.01 10.1953 277.104 17.1021 277.104 25.627C277.104 34.1438 284.01 41.0586 292.535 41.0586C296.955 41.0586 300.754 39.2876 303.386 36.3977L299.812 32.8236C298.025 34.6026 295.594 35.6974 292.905 35.6974C287.456 35.6974 283.044 31.8978 282.996 25.627C283.044 19.3561 287.456 15.5565 292.905 15.5565Z" fill="white"/>
<path d="M181.432 20.37C181.432 13.9623 176.739 10.6699 169.921 10.6699H158.361V40.4304H164.069V30.0219C165.655 30.2553 167.401 30.2875 168.77 30.2956C170.026 34.4654 172.4 38.1362 174.807 41.1227L181.585 40.6316C179.694 38.6031 175.983 34.3849 174.252 29.5308C177.85 28.3636 181.432 25.6508 181.432 20.37ZM164.069 15.5884H169.551C172.988 15.5884 175.492 17.303 175.492 20.4666C175.492 23.5337 173.262 25.4817 168.947 25.4817C167.321 25.4817 165.695 25.4334 164.069 25.1597V15.5884Z" fill="white"/>
<path d="M45.9089 40.7924C46.086 47.6188 40.6926 53.2939 33.8663 53.471C27.04 53.6481 21.3648 48.2547 21.1877 41.4284C21.1796 41.2191 21.1796 41.0098 21.1877 40.8005C21.1877 30.4 33.5523 15.1133 33.5523 15.1133C33.5523 15.1133 45.9089 30.3678 45.9089 40.7924Z" fill="white"/>
<path d="M33.552 61.9163H5.63493V15.1061V6.08219V0.447266H0V67.5512H33.552V61.9163Z" fill="white"/>
<path d="M33.5508 0.447266V6.08219H61.4678V47.9014V67.5512H67.1027V0.447266H33.5508Z" fill="white"/>
</g>
<defs>
<clipPath id="clip0_2975_356">
<rect width="333" height="67.1039" fill="white" transform="translate(0 0.447266)"/>
</clipPath>
</defs>
</svg>
