<svg width="20" height="20" viewBox="0 0 20 20" fill="none" xmlns="http://www.w3.org/2000/svg">
<path d="M18.3096 15.2763C18.3096 15.5763 18.243 15.8846 18.1013 16.1846C17.9596 16.4846 17.7763 16.768 17.5346 17.0346C17.1263 17.4846 16.6763 17.8096 16.168 18.018C15.668 18.2263 15.1263 18.3346 14.543 18.3346C13.693 18.3346 12.7846 18.1346 11.8263 17.7263C10.868 17.318 9.90964 16.768 8.95964 16.0763C8.0013 15.3763 7.09297 14.6013 6.2263 13.743C5.36797 12.8763 4.59297 11.968 3.9013 11.018C3.21797 10.068 2.66797 9.11797 2.26797 8.1763C1.86797 7.2263 1.66797 6.31797 1.66797 5.4513C1.66797 4.88464 1.76797 4.34297 1.96797 3.84297C2.16797 3.33464 2.48464 2.86797 2.9263 2.4513C3.45964 1.9263 4.04297 1.66797 4.65964 1.66797C4.89297 1.66797 5.1263 1.71797 5.33464 1.81797C5.5513 1.91797 5.74297 2.06797 5.89297 2.28464L7.8263 5.00964C7.9763 5.21797 8.08464 5.40964 8.15964 5.59297C8.23464 5.76797 8.2763 5.94297 8.2763 6.1013C8.2763 6.3013 8.21797 6.5013 8.1013 6.69297C7.99297 6.88463 7.83464 7.08464 7.63464 7.28464L7.0013 7.94297C6.90964 8.03464 6.86797 8.14297 6.86797 8.2763C6.86797 8.34297 6.8763 8.4013 6.89297 8.46797C6.91797 8.53464 6.94297 8.58463 6.95964 8.63463C7.10964 8.90964 7.36797 9.26797 7.73464 9.7013C8.10964 10.1346 8.50964 10.5763 8.94297 11.018C9.39297 11.4596 9.8263 11.868 10.268 12.243C10.7013 12.6096 11.0596 12.8596 11.343 13.0096C11.3846 13.0263 11.4346 13.0513 11.493 13.0763C11.5596 13.1013 11.6263 13.1096 11.7013 13.1096C11.843 13.1096 11.9513 13.0596 12.043 12.968L12.6763 12.343C12.8846 12.1346 13.0846 11.9763 13.2763 11.8763C13.468 11.7596 13.6596 11.7013 13.868 11.7013C14.0263 11.7013 14.193 11.7346 14.3763 11.8096C14.5596 11.8846 14.7513 11.993 14.9596 12.1346L17.718 14.093C17.9346 14.243 18.0846 14.418 18.1763 14.6263C18.2596 14.8346 18.3096 15.043 18.3096 15.2763Z" fill="url(#paint0_linear_2955_46971)"/>
<defs>
<linearGradient id="paint0_linear_2955_46971" x1="1.66797" y1="10.0013" x2="18.3096" y2="10.0013" gradientUnits="userSpaceOnUse">
<stop stop-color="#016192"/>
<stop offset="1" stop-color="#014B7B"/>
</linearGradient>
</defs>
</svg>
