<svg width="24" height="24" viewBox="0 0 24 24" fill="none" xmlns="http://www.w3.org/2000/svg">
    <rect x="0.85" y="0.85" width="22.3" height="22.3" rx="11.15" stroke="#162E3A" stroke-width="1.7" />
    <path
        d="M12.33 14.424H10.764V13.776C10.764 11.184 13.446 10.986 13.446 9.15C13.446 8.178 12.798 7.566 11.52 7.566C10.386 7.548 9.522 7.98 9 8.34L9.144 6.63C9.99 6.216 10.782 6 11.826 6C13.842 6 15.264 7.026 15.264 8.88C15.264 11.652 12.33 11.85 12.33 14.01V14.424ZM11.556 18.276C10.908 18.276 10.422 17.772 10.422 17.124C10.422 16.512 10.908 16.008 11.556 16.008C12.204 16.008 12.69 16.494 12.69 17.124C12.69 17.772 12.204 18.276 11.556 18.276Z"
        fill="#162E3A" />
</svg>