<svg width="18" height="16" viewBox="0 0 18 16" fill="none" xmlns="http://www.w3.org/2000/svg">
<path d="M9.63034 0.401534L11.6746 4.52868C11.7211 4.63343 11.7943 4.72417 11.8868 4.79184C11.9792 4.85952 12.0879 4.90177 12.2018 4.91439L16.7146 5.58296C16.8453 5.59976 16.9685 5.65338 17.0698 5.73758C17.1711 5.82177 17.2464 5.93305 17.2869 6.05844C17.3273 6.18382 17.3313 6.31812 17.2982 6.44565C17.2652 6.57319 17.1966 6.68869 17.1003 6.77868L13.8475 10.0058C13.7645 10.0834 13.7022 10.1805 13.6662 10.2883C13.6303 10.396 13.6219 10.5111 13.6418 10.623L14.4261 15.1615C14.4488 15.2919 14.4344 15.4261 14.3846 15.5488C14.3348 15.6714 14.2516 15.7776 14.1445 15.8553C14.0373 15.933 13.9105 15.9791 13.7784 15.9883C13.6463 15.9975 13.5144 15.9694 13.3975 15.9072L9.33463 13.7601C9.23059 13.709 9.11623 13.6825 9.00034 13.6825C8.88444 13.6825 8.77009 13.709 8.66605 13.7601L4.6032 15.9072C4.48631 15.9694 4.35433 15.9975 4.22227 15.9883C4.09022 15.9791 3.96339 15.933 3.85622 15.8553C3.74904 15.7776 3.66583 15.6714 3.61605 15.5488C3.56627 15.4261 3.55192 15.2919 3.57462 15.1615L4.35891 10.5715C4.37879 10.4597 4.37038 10.3446 4.33445 10.2368C4.29852 10.129 4.23622 10.032 4.1532 9.95439L0.861768 6.77868C0.764391 6.68623 0.69591 6.56753 0.664621 6.43695C0.633332 6.30638 0.640578 6.16953 0.68548 6.04299C0.730381 5.91645 0.811013 5.80564 0.917607 5.72399C1.0242 5.64234 1.15218 5.59336 1.28605 5.58296L5.79891 4.91439C5.91282 4.90177 6.02144 4.85952 6.11393 4.79184C6.20642 4.72417 6.27956 4.63343 6.32605 4.52868L8.37034 0.401534C8.42601 0.281331 8.51491 0.179563 8.62654 0.108242C8.73817 0.0369205 8.86787 -0.000976562 9.00034 -0.000976562C9.13281 -0.000976562 9.26251 0.0369205 9.37414 0.108242C9.48577 0.179563 9.57467 0.281331 9.63034 0.401534Z" fill="#D9D9D9"/>
</svg>
