<svg width="33" height="32" viewBox="0 0 33 32" fill="none" xmlns="http://www.w3.org/2000/svg">
<g clip-path="url(#clip0_2760_43397)">
<path d="M9.83333 14.6673V25.334C9.83333 25.6876 9.69286 26.0267 9.44281 26.2768C9.19276 26.5268 8.85362 26.6673 8.5 26.6673H5.83333C5.47971 26.6673 5.14057 26.5268 4.89052 26.2768C4.64048 26.0267 4.5 25.6876 4.5 25.334V16.0007C4.5 15.647 4.64048 15.3079 4.89052 15.0578C5.14057 14.8078 5.47971 14.6673 5.83333 14.6673H9.83333ZM9.83333 14.6673C11.2478 14.6673 12.6044 14.1054 13.6046 13.1052C14.6048 12.105 15.1667 10.7485 15.1667 9.33398V8.00065C15.1667 7.29341 15.4476 6.61513 15.9477 6.11503C16.4478 5.61494 17.1261 5.33398 17.8333 5.33398C18.5406 5.33398 19.2189 5.61494 19.719 6.11503C20.219 6.61513 20.5 7.29341 20.5 8.00065V14.6673H24.5C25.2072 14.6673 25.8855 14.9483 26.3856 15.4484C26.8857 15.9485 27.1667 16.6267 27.1667 17.334L25.8333 24.0006C25.6416 24.8186 25.2778 25.521 24.7969 26.0019C24.3159 26.4829 23.7438 26.7164 23.1667 26.6673H13.8333C12.7725 26.6673 11.7551 26.2459 11.0049 25.4957C10.2548 24.7456 9.83333 23.7282 9.83333 22.6673" stroke="white" stroke-width="2" stroke-linecap="round" stroke-linejoin="round"/>
</g>
<defs>
<clipPath id="clip0_2760_43397">
<rect width="32" height="32" fill="white" transform="translate(0.5)"/>
</clipPath>
</defs>
</svg>
