<svg width="18" height="18" viewBox="0 0 18 18" fill="none" xmlns="http://www.w3.org/2000/svg">
<path d="M15.75 5.04785C15.735 5.04785 15.7125 5.04785 15.69 5.04785C11.7225 4.65035 7.7625 4.50035 3.84 4.89785L2.31 5.04785C1.995 5.07785 1.7175 4.85285 1.6875 4.53785C1.6575 4.22285 1.8825 3.95285 2.19 3.92285L3.72 3.77285C7.71 3.36785 11.7525 3.52535 15.8025 3.92285C16.11 3.95285 16.335 4.23035 16.305 4.53785C16.2825 4.83035 16.035 5.04785 15.75 5.04785Z" fill="#005C8F"/>
<path d="M6.37507 4.29C6.34507 4.29 6.31507 4.29 6.27757 4.2825C5.97757 4.23 5.76757 3.9375 5.82007 3.6375L5.98507 2.655C6.10507 1.935 6.27007 0.9375 8.01757 0.9375H9.98257C11.7376 0.9375 11.9026 1.9725 12.0151 2.6625L12.1801 3.6375C12.2326 3.945 12.0226 4.2375 11.7226 4.2825C11.4151 4.335 11.1226 4.125 11.0776 3.825L10.9126 2.85C10.8076 2.1975 10.7851 2.07 9.99007 2.07H8.02507C7.23007 2.07 7.21507 2.175 7.10257 2.8425L6.93007 3.8175C6.88507 4.095 6.64507 4.29 6.37507 4.29Z" fill="#005C8F"/>
<path d="M11.4075 17.0627H6.59255C3.97505 17.0627 3.87005 15.6152 3.78755 14.4452L3.30005 6.89268C3.27755 6.58518 3.51755 6.31518 3.82505 6.29268C4.14005 6.27768 4.40255 6.51018 4.42505 6.81768L4.91255 14.3702C4.99505 15.5102 5.02505 15.9377 6.59255 15.9377H11.4075C12.9825 15.9377 13.0125 15.5102 13.0875 14.3702L13.575 6.81768C13.5975 6.51018 13.8675 6.27768 14.175 6.29268C14.4825 6.31518 14.7225 6.57768 14.7 6.89268L14.2125 14.4452C14.13 15.6152 14.025 17.0627 11.4075 17.0627Z" fill="#005C8F"/>
<path d="M10.2451 12.9375H7.74756C7.44006 12.9375 7.18506 12.6825 7.18506 12.375C7.18506 12.0675 7.44006 11.8125 7.74756 11.8125H10.2451C10.5526 11.8125 10.8076 12.0675 10.8076 12.375C10.8076 12.6825 10.5526 12.9375 10.2451 12.9375Z" fill="#005C8F"/>
<path d="M10.875 9.9375H7.125C6.8175 9.9375 6.5625 9.6825 6.5625 9.375C6.5625 9.0675 6.8175 8.8125 7.125 8.8125H10.875C11.1825 8.8125 11.4375 9.0675 11.4375 9.375C11.4375 9.6825 11.1825 9.9375 10.875 9.9375Z" fill="#005C8F"/>
</svg>
