<svg width="20" height="20" viewBox="0 0 20 20" fill="none" xmlns="http://www.w3.org/2000/svg">
<path d="M10 0C4.4775 0 0 4.4775 0 10C0 11.876 0.526951 13.6251 1.42578 15.1253L0.0895182 20L5.06836 18.693C6.52446 19.5209 8.20541 20 10 20C15.5225 20 20 15.5225 20 10C20 4.4775 15.5225 0 10 0ZM6.57715 5.33529C6.73965 5.33529 6.90661 5.3343 7.05078 5.3418C7.22912 5.34596 7.42322 5.35902 7.60905 5.76986C7.82988 6.25819 8.31073 7.48325 8.3724 7.60742C8.43406 7.73159 8.47776 7.87786 8.39193 8.04037C8.31026 8.20703 8.26779 8.3079 8.14779 8.4554C8.02362 8.59874 7.88757 8.77676 7.77506 8.88509C7.6509 9.00926 7.52268 9.1454 7.66602 9.3929C7.80935 9.6404 8.30714 10.4518 9.04297 11.1068C9.9888 11.9518 10.7868 12.2114 11.0352 12.3356C11.2835 12.4598 11.4273 12.4404 11.5706 12.2738C11.7181 12.1113 12.1901 11.5537 12.3568 11.3053C12.5193 11.057 12.6852 11.1 12.9102 11.1816C13.1385 11.2633 14.3562 11.8631 14.6045 11.9873C14.8528 12.1115 15.0156 12.1729 15.0781 12.2738C15.1423 12.3779 15.1424 12.8738 14.9365 13.4521C14.7307 14.0296 13.7199 14.5881 13.2666 14.6273C12.8091 14.6698 12.3821 14.8329 10.293 14.0104C7.77297 13.0179 6.18374 10.4368 6.05957 10.2702C5.9354 10.1077 5.05046 8.92826 5.05046 7.71159C5.05046 6.49076 5.69055 5.89286 5.91471 5.64453C6.14305 5.3962 6.41048 5.33529 6.57715 5.33529Z" fill="url(#paint0_linear_2955_46979)"/>
<defs>
<linearGradient id="paint0_linear_2955_46979" x1="0" y1="10" x2="20" y2="10" gradientUnits="userSpaceOnUse">
<stop stop-color="#016192"/>
<stop offset="1" stop-color="#014B7B"/>
</linearGradient>
</defs>
</svg>
