<svg width="80" height="60" fill="none" xmlns="http://www.w3.org/2000/svg"><path d="M46.924 54.757c10.85 0 19.645-8.796 19.645-19.645 0-10.85-8.795-19.645-19.645-19.645S27.28 24.262 27.28 35.112s8.796 19.645 19.645 19.645Zm19.992.35c11.039-11.04 11.039-28.933 0-39.972" stroke="#005C8F" stroke-width=".852" stroke-linecap="round" stroke-linejoin="round"/><path d="M75.746 49.228c4.073-8.33 4.33-18.078.737-26.574" stroke="#005C8F" stroke-width=".852" stroke-linecap="round" stroke-linejoin="round"/><path d="M46.922 59.013c13.2 0 23.902-10.701 23.902-23.902 0-13.2-10.702-23.902-23.902-23.902-13.201 0-23.902 10.701-23.902 23.902 0 13.2 10.7 23.902 23.902 23.902Z" stroke="#005C8F" stroke-width="1.704" stroke-linecap="round" stroke-linejoin="round"/><path d="M46.92 38.558a3.446 3.446 0 1 0 0-6.892 3.446 3.446 0 0 0 0 6.892Z" stroke="#005C8F" stroke-width="1.704" stroke-linecap="round" stroke-linejoin="round"/><path d="M46.926 15.467v3.796m0 31.697v3.797m9.8-36.655-1.898 3.28M38.99 48.84l-1.898 3.28m26.843-26.83-3.28 1.897M33.19 43.035l-3.28 1.898m36.668-9.822H62.78m-31.699 0h-3.796m36.65 9.822-3.28-1.898M33.19 27.187l-3.28-1.898M56.726 52.12l-1.898-3.28M38.99 21.382l-1.898-3.28" stroke="#005C8F" stroke-width=".852" stroke-linecap="round" stroke-linejoin="round"/><path d="M44.102 11.302v-3.87h5.639v3.87" stroke="#005C8F" stroke-width="1.704" stroke-linecap="round" stroke-linejoin="round"/><path d="M53.755 1H40.1v6.432h13.655V1Z" stroke="#005C8F" stroke-width="1.704" stroke-linecap="round" stroke-linejoin="round"/><path d="M24.36 18.268H5.139" stroke="#005C8F" stroke-width=".852" stroke-linecap="round" stroke-linejoin="round"/><path d="M19.65 26.652H1m19.066 8.385H5.139m14.931 8.367H2.192" stroke="#005C8F" stroke-width="1.704" stroke-linecap="round" stroke-linejoin="round"/><path d="M24.376 51.79H5.652" stroke="#005C8F" stroke-width=".852" stroke-linecap="round" stroke-linejoin="round"/><path d="M46.935 31.665v-8.183m1.784 14.578 2.764 5.068" stroke="#005C8F" stroke-width="1.704" stroke-linecap="round" stroke-linejoin="round"/></svg>