<svg width="63" height="66" fill="none" xmlns="http://www.w3.org/2000/svg"><path d="M31.526 4.677 37.31 1l3.62 5.842 6.819-.824.747 6.838 6.492 2.24-2.317 6.455 4.884 4.846-4.884 4.826 2.318 6.474-6.493 2.221-.747 6.838-6.819-.804-3.62 5.822-5.784-3.677-5.803 3.677-3.62-5.822-6.818.804-.728-6.837-6.512-2.222 2.318-6.474-4.884-4.826 4.884-4.846-2.318-6.454 6.512-2.241.728-6.838 6.818.824L25.723 1l5.803 3.677Z" stroke="#005C8F" stroke-width="1.58" stroke-linecap="round" stroke-linejoin="round"/><path d="M37.357 18.945v-4.443H25.654v4.443h3.62v14.92h-3.62v4.463h11.703v-4.463h-3.62v-14.92h3.62Z" stroke="#005C8F" stroke-width=".79" stroke-linecap="round" stroke-linejoin="round"/><path d="M31.515 43.94c9.689 0 17.544-7.855 17.544-17.544 0-9.69-7.855-17.544-17.544-17.544-9.69 0-17.544 7.854-17.544 17.543 0 9.69 7.854 17.545 17.544 17.545Zm14.323 9.385c2.605-1.379 5.037-3.18 7.24-5.363 11.913-11.913 11.913-31.219 0-43.132m-23.627 52a29.84 29.84 0 0 0 4.137 0M9.935 4.81c-11.913 11.914-11.913 31.22 0 43.133a30.325 30.325 0 0 0 7.24 5.363" stroke="#005C8F" stroke-width=".79" stroke-linecap="round" stroke-linejoin="round"/><path d="m43.59 46.258 4.692 14.652-7.24-1.705-4.922 5.612-4.597-14.384" stroke="#005C8F" stroke-width="1.58" stroke-linecap="round" stroke-linejoin="round"/><path d="M19.446 46.258 14.754 60.91l7.24-1.705 4.922 5.612 5.229-16.318" stroke="#005C8F" stroke-width="1.58" stroke-linecap="round" stroke-linejoin="round"/></svg>