<svg width="64" height="66" fill="none" xmlns="http://www.w3.org/2000/svg"><path d="M40.065 43.164h5.455v21.282H18.556V43.164h5.433m38.292 0H50.92v21.282h11.36V43.164Zm-49.17 0H1.75v21.282h11.361V43.164Z" stroke="#005C8F" stroke-width="1.709" stroke-linecap="round" stroke-linejoin="round"/><path d="M18.563 45.16h-5.434v17.31h5.434V45.16Zm32.363 0h-5.434v17.31h5.434V45.16Zm-10.843-1.977s-2.717 5.619-8.048 5.619c-5.33 0-8.027-5.619-8.027-5.619v-8.48h16.075v8.48Z" stroke="#005C8F" stroke-width="1.709" stroke-linecap="round" stroke-linejoin="round"/><path d="M23.347 17.54c-10.29-.844-17.7-3.15-17.7-5.846 0-3.437 11.814-6.174 26.386-6.174m8.686.308c10.291.844 17.7 3.15 17.7 5.866 0 3.417-11.813 6.175-26.386 6.175" stroke="#005C8F" stroke-width=".855" stroke-linecap="round" stroke-linejoin="round"/><path d="M37.232 28.262H26.838v6.421h10.394v-6.421Z" stroke="#005C8F" stroke-width="1.709" stroke-linecap="round" stroke-linejoin="round"/><path d="m27.604 9.903 4.425-4.425-4.426-4.425m8.856 12.412-4.426 4.425 4.425 4.405" stroke="#005C8F" stroke-width=".855" stroke-linecap="round" stroke-linejoin="round"/></svg>