<svg width="68" height="47" fill="none" xmlns="http://www.w3.org/2000/svg"><path d="M61.943 1.365H2v18.729h59.943V1.365Z" stroke="#005C8F" stroke-width="2.241" stroke-linecap="round" stroke-linejoin="round"/><path d="M65.999 7.121h-4.058v7.196H66V7.12Z" stroke="#005C8F" stroke-width="2.241" stroke-linecap="round" stroke-linejoin="round"/><path d="M13.513 5.703H7.037v10.054h6.476V5.703Zm10.609 0h-6.476v10.054h6.476V5.703Zm10.795 0h-6.476v10.054h6.476V5.703Z" stroke="#005C8F" stroke-width="1.12" stroke-linecap="round" stroke-linejoin="round"/><path d="M61.943 26.35H2v18.728h59.943V26.35Z" stroke="#005C8F" stroke-width="2.241" stroke-linecap="round" stroke-linejoin="round"/><path d="M65.999 32.105h-4.058v7.196H66v-7.196Z" stroke="#005C8F" stroke-width="2.241" stroke-linecap="round" stroke-linejoin="round"/><path d="M13.513 30.688H7.037V40.74h6.476V30.688Zm10.609 0h-6.476V40.74h6.476V30.688Zm10.795 0h-6.476V40.74h6.476V30.688Z" stroke="#005C8F" stroke-width="1.12" stroke-linecap="round" stroke-linejoin="round"/></svg>