<svg width="76" height="65" fill="none" xmlns="http://www.w3.org/2000/svg"><path d="M38.262 57.658h16.46v-2.425h6.646v2.425H75.25V23.725H61.368v2.425h-6.646v-2.425h-6.645m-9.815-10.37h9.815v10.37" stroke="#005C8F" stroke-width=".811" stroke-linecap="round" stroke-linejoin="round"/><path d="M44.602 24.813v-7.848h-6.34" stroke="#005C8F" stroke-width=".811" stroke-linecap="round" stroke-linejoin="round"/><path d="M28.42 23.723h-6.645v33.933h16.48m-37.007.002h13.883V23.705H1.248v33.953Z" stroke="#005C8F" stroke-width="1.622" stroke-linecap="round" stroke-linejoin="round"/><path d="M15.13 55.232h6.645V26.15H15.13v29.083Zm23.121-41.878h-9.815v10.35s3.303 6.874 9.815 6.874m-6.345-17.224V5.506h6.36" stroke="#005C8F" stroke-width="1.622" stroke-linecap="round" stroke-linejoin="round"/><path d="M38.262 1v63.15m0-10.597c7.103 0 12.851-5.748 12.851-12.852S45.365 27.85 38.262 27.85" stroke="#005C8F" stroke-width=".811" stroke-linecap="round" stroke-linejoin="round"/><path d="M46.78 50.287h15.467V52.1h13.004V29.28H62.247v1.814H46.78m-5.007-2.767V13.355" stroke="#005C8F" stroke-width=".811" stroke-linecap="round" stroke-linejoin="round"/></svg>