<svg width="62" height="62" fill="none" xmlns="http://www.w3.org/2000/svg"><path d="M13.985 14.383a23.033 23.033 0 0 0-3.657 5.004L3.86 17.824A29.98 29.98 0 0 0 1.5 25.09l6.185 2.544c-.133 1.014-.233 2.045-.233 3.092 0 1.048.1 2.078.233 3.093L1.5 36.36a29.983 29.983 0 0 0 2.36 7.265l6.468-1.562a24.184 24.184 0 0 0 3.657 5.004l-3.508 5.686a31.073 31.073 0 0 0 6.168 4.505l4.323-5.087a23.725 23.725 0 0 0 5.885 1.928l.516 6.65c1.247.15 2.527.25 3.823.25 1.297 0 2.56-.084 3.824-.25l.516-6.65a22.846 22.846 0 0 0 5.885-1.928l4.322 5.087a29.97 29.97 0 0 0 6.168-4.505L48.4 47.068a23.03 23.03 0 0 0 3.658-5.004l6.467 1.562a29.988 29.988 0 0 0 2.36-7.265L54.7 33.818c.133-1.015.233-2.045.233-3.093 0-1.047-.1-2.078-.233-3.092l6.185-2.544a29.985 29.985 0 0 0-2.36-7.265l-6.468 1.563a24.188 24.188 0 0 0-3.658-5.004" stroke="#005C8F" stroke-width="1.459" stroke-linecap="round" stroke-linejoin="round"/><path d="M31.227 48.997a3.159 3.159 0 1 0 0-6.317 3.159 3.159 0 0 0 0 6.317Zm-10.693 0a3.159 3.159 0 1 0 0-6.317 3.159 3.159 0 0 0 0 6.317Zm21.328 0a3.159 3.159 0 1 0 0-6.317 3.159 3.159 0 0 0 0 6.317Zm-10.669-6.301V22.031m4.804-9.676h4.056L31.193 1l-8.845 11.355h4.056m.004 15.927V12.355m9.59 3.708V32.97m-15.461-3.541V18.506m21.334 0v10.923M20.537 42.695v-3.99m21.334 0v3.99m7.712-2.377a3.159 3.159 0 1 0 0-6.318 3.159 3.159 0 0 0 0 6.318ZM41.871 29.43l5.503 5.503M12.807 40.32a3.159 3.159 0 1 0 0-6.318 3.159 3.159 0 0 0 0 6.317Zm7.731-10.89-5.503 5.503m26.83 3.774-5.902-5.902m-15.426 5.9 5.935-5.935" stroke="#005C8F" stroke-width=".729" stroke-linecap="round" stroke-linejoin="round"/></svg>