<svg width="80" height="60" viewBox="0 0 80 60" fill="none" xmlns="http://www.w3.org/2000/svg">
<path d="M46.9243 54.7568C57.7739 54.7568 66.5693 45.9614 66.5693 35.1118C66.5693 24.2622 57.7739 15.4668 46.9243 15.4668C36.0747 15.4668 27.2793 24.2622 27.2793 35.1118C27.2793 45.9614 36.0747 54.7568 46.9243 54.7568Z" stroke="#005C8F" stroke-width="0.851968" stroke-linecap="round" stroke-linejoin="round"/>
<path d="M66.916 55.1066C77.9548 44.0678 77.9548 26.1736 66.916 15.1348" stroke="#005C8F" stroke-width="0.851968" stroke-linecap="round" stroke-linejoin="round"/>
<path d="M75.7461 49.2285C79.8188 40.8987 80.0768 31.1499 76.4832 22.6543" stroke="#005C8F" stroke-width="0.851968" stroke-linecap="round" stroke-linejoin="round"/>
<path d="M46.9215 59.013C60.1223 59.013 70.8236 48.3117 70.8236 35.111C70.8236 21.9103 60.1223 11.209 46.9215 11.209C33.7208 11.209 23.0195 21.9103 23.0195 35.111C23.0195 48.3117 33.7208 59.013 46.9215 59.013Z" stroke="#005C8F" stroke-width="1.70394" stroke-linecap="round" stroke-linejoin="round"/>
<path d="M46.9208 38.5583C48.824 38.5583 50.3669 37.0154 50.3669 35.1122C50.3669 33.2089 48.824 31.666 46.9208 31.666C45.0175 31.666 43.4746 33.2089 43.4746 35.1122C43.4746 37.0154 45.0175 38.5583 46.9208 38.5583Z" stroke="#005C8F" stroke-width="1.70394" stroke-linecap="round" stroke-linejoin="round"/>
<path d="M46.9258 15.4668V19.2631" stroke="#005C8F" stroke-width="0.851968" stroke-linecap="round" stroke-linejoin="round"/>
<path d="M46.9258 50.9609V54.7572" stroke="#005C8F" stroke-width="0.851968" stroke-linecap="round" stroke-linejoin="round"/>
<path d="M56.7263 18.1016L54.8281 21.3819" stroke="#005C8F" stroke-width="0.851968" stroke-linecap="round" stroke-linejoin="round"/>
<path d="M38.99 48.8398L37.0918 52.1202" stroke="#005C8F" stroke-width="0.851968" stroke-linecap="round" stroke-linejoin="round"/>
<path d="M63.9346 25.2891L60.6543 27.1872" stroke="#005C8F" stroke-width="0.851968" stroke-linecap="round" stroke-linejoin="round"/>
<path d="M33.1905 43.0352L29.9102 44.9333" stroke="#005C8F" stroke-width="0.851968" stroke-linecap="round" stroke-linejoin="round"/>
<path d="M66.5776 35.1113H62.7812" stroke="#005C8F" stroke-width="0.851968" stroke-linecap="round" stroke-linejoin="round"/>
<path d="M31.0815 35.1113H27.2852" stroke="#005C8F" stroke-width="0.851968" stroke-linecap="round" stroke-linejoin="round"/>
<path d="M63.9346 44.9333L60.6543 43.0352" stroke="#005C8F" stroke-width="0.851968" stroke-linecap="round" stroke-linejoin="round"/>
<path d="M33.1905 27.1872L29.9102 25.2891" stroke="#005C8F" stroke-width="0.851968" stroke-linecap="round" stroke-linejoin="round"/>
<path d="M56.7263 52.1202L54.8281 48.8398" stroke="#005C8F" stroke-width="0.851968" stroke-linecap="round" stroke-linejoin="round"/>
<path d="M38.99 21.3819L37.0918 18.1016" stroke="#005C8F" stroke-width="0.851968" stroke-linecap="round" stroke-linejoin="round"/>
<path d="M44.1016 11.3017V7.43164H49.7407V11.3017" stroke="#005C8F" stroke-width="1.70394" stroke-linecap="round" stroke-linejoin="round"/>
<path d="M53.7553 1H40.0996V7.43161H53.7553V1Z" stroke="#005C8F" stroke-width="1.70394" stroke-linecap="round" stroke-linejoin="round"/>
<path d="M24.3598 18.2676H5.13867" stroke="#005C8F" stroke-width="0.851968" stroke-linecap="round" stroke-linejoin="round"/>
<path d="M19.6498 26.6523H1" stroke="#005C8F" stroke-width="1.70394" stroke-linecap="round" stroke-linejoin="round"/>
<path d="M20.0659 35.0371H5.13867" stroke="#005C8F" stroke-width="1.70394" stroke-linecap="round" stroke-linejoin="round"/>
<path d="M20.0692 43.4043H2.19336" stroke="#005C8F" stroke-width="1.70394" stroke-linecap="round" stroke-linejoin="round"/>
<path d="M24.3759 51.7891H5.65234" stroke="#005C8F" stroke-width="0.851968" stroke-linecap="round" stroke-linejoin="round"/>
<path d="M46.9355 31.6648V23.4824" stroke="#005C8F" stroke-width="1.70394" stroke-linecap="round" stroke-linejoin="round"/>
<path d="M48.7188 38.0605L51.4831 43.1284" stroke="#005C8F" stroke-width="1.70394" stroke-linecap="round" stroke-linejoin="round"/>
</svg>
