<svg width="63" height="66" viewBox="0 0 63 66" fill="none" xmlns="http://www.w3.org/2000/svg">
<path d="M31.5263 4.67733L37.3105 1L40.9304 6.84161L47.7488 6.01804L48.4957 12.8556L54.9885 15.0965L52.671 21.551L57.555 26.3966L52.671 31.2231L54.9885 37.6968L48.4957 39.9185L47.7488 46.7561L40.9304 45.9516L37.3105 51.7741L31.5263 48.0967L25.723 51.7741L22.1031 45.9516L15.2847 46.7561L14.5569 39.9185L8.04504 37.6968L10.3625 31.2231L5.47852 26.3966L10.3625 21.551L8.04504 15.0965L14.5569 12.8556L15.2847 6.01804L22.1031 6.84161L25.723 1L31.5263 4.67733Z" stroke="#005C8F" stroke-width="1.57983" stroke-linecap="round" stroke-linejoin="round"/>
<path d="M37.3567 18.9454V14.502H33.7368H29.2742H25.6543V18.9454H29.2742V33.8654H25.6543V38.328H29.2742H33.7368H37.3567V33.8654H33.7368V18.9454H37.3567Z" stroke="#005C8F" stroke-width="0.789917" stroke-linecap="round" stroke-linejoin="round"/>
<path d="M31.5146 43.9395C41.2039 43.9395 49.0586 36.0848 49.0586 26.3955C49.0586 16.7063 41.2039 8.85156 31.5146 8.85156C21.8254 8.85156 13.9707 16.7063 13.9707 26.3955C13.9707 36.0848 21.8254 43.9395 31.5146 43.9395Z" stroke="#005C8F" stroke-width="0.789917" stroke-linecap="round" stroke-linejoin="round"/>
<path d="M45.8379 53.325C48.4427 51.946 50.875 50.1456 53.0776 47.9622C64.9906 36.0491 64.9906 16.7431 53.0776 4.83008" stroke="#005C8F" stroke-width="0.789917" stroke-linecap="round" stroke-linejoin="round"/>
<path d="M29.4512 56.8301C30.8302 56.9258 32.2091 56.9258 33.5881 56.8301" stroke="#005C8F" stroke-width="0.789917" stroke-linecap="round" stroke-linejoin="round"/>
<path d="M9.93478 4.81055C-1.97826 16.7236 -1.97826 36.0296 9.93478 47.9427C12.1182 50.1261 14.5697 51.9264 17.1745 53.3055" stroke="#005C8F" stroke-width="0.789917" stroke-linecap="round" stroke-linejoin="round"/>
<path d="M43.5898 46.2578L48.2821 60.9097L41.0424 59.2051L36.1202 64.8169L31.5234 50.4331" stroke="#005C8F" stroke-width="1.57983" stroke-linecap="round" stroke-linejoin="round"/>
<path d="M19.4462 46.2578L14.7539 60.9097L21.9936 59.2051L26.9159 64.8169L32.1446 48.4987" stroke="#005C8F" stroke-width="1.57983" stroke-linecap="round" stroke-linejoin="round"/>
</svg>
