<svg width="55" height="54" viewBox="0 0 55 54" fill="none" xmlns="http://www.w3.org/2000/svg">
<path d="M30.4322 24.2051L7.88086 46.7564" stroke="#005C8F" stroke-width="0.848468" stroke-linecap="round" stroke-linejoin="round"/>
<path d="M35.3739 26.5566L51.0994 42.2822C53.4509 44.6336 53.4509 48.5038 51.0994 50.8553C48.7479 53.2067 44.8778 53.2067 42.5263 50.8553L26.8008 35.1297" stroke="#005C8F" stroke-width="1.69694" stroke-linecap="round" stroke-linejoin="round"/>
<path d="M29.6289 32.3202L45.3381 48.0294C46.1546 48.8459 47.4773 48.8459 48.2774 48.0294C49.0939 47.2129 49.0939 45.8902 48.2774 45.09L32.5682 29.3809" stroke="#005C8F" stroke-width="0.848468" stroke-linecap="round" stroke-linejoin="round"/>
<path d="M12.4359 8.64231L12.2236 5.18041L4.79355 1L1.25 4.54355L5.4304 11.9736L8.8923 12.1859L22.0051 25.2986L25.5486 21.7551L12.4359 8.64231Z" stroke="#005C8F" stroke-width="1.69694" stroke-linecap="round" stroke-linejoin="round"/>
<path d="M52.9243 10.5364L44.4655 18.9952L37.509 17.1336L35.6474 10.1771L44.1063 1.71834C40.1871 0.771221 35.8761 1.81632 32.8061 4.86998C29.4421 8.2339 28.5114 13.1165 29.981 17.3296L3.64118 43.6694C1.63263 45.678 1.63263 48.9766 3.64118 50.9851C5.64974 52.9937 8.94836 52.9937 10.9569 50.9851L37.2967 24.6453C41.5098 26.1313 46.3924 25.2005 49.7563 21.8202C52.8263 18.7502 53.8551 14.4555 52.908 10.5201L52.9243 10.5364Z" stroke="#005C8F" stroke-width="1.69694" stroke-linecap="round" stroke-linejoin="round"/>
</svg>
