<svg width="63" height="56" viewBox="0 0 63 56" fill="none" xmlns="http://www.w3.org/2000/svg">
<path d="M10.964 15.707C5.89457 17.1604 1.5 17.2988 1.5 17.2988V34.7389C1.5 45.2064 16.3794 52.2135 16.3794 52.2135C16.3794 52.2135 19.1304 50.9159 22.262 48.5975" stroke="#005C8F" stroke-width="1.70246" stroke-linecap="round" stroke-linejoin="round"/>
<path d="M10.9642 19.9121C8.95721 20.4312 7.08868 20.7599 5.54883 20.9848V34.7569C5.54883 40.2935 12.2792 45.3109 16.3624 47.6467C17.1928 47.1795 18.1271 46.5913 19.096 45.9165" stroke="#005C8F" stroke-width="0.851231" stroke-linecap="round" stroke-linejoin="round"/>
<path d="M52.2349 15.7583V6.05208C52.2349 6.05208 41.1619 5.67145 31.594 1C22.0262 5.67145 10.9531 6.05208 10.9531 6.05208V30.2571C10.9531 44.7732 31.594 54.4967 31.594 54.4967C31.594 54.4967 36.0579 52.3859 40.8331 48.6834" stroke="#005C8F" stroke-width="1.70246" stroke-linecap="round" stroke-linejoin="round"/>
<path d="M46.6138 13.6656V11.1395C42.669 10.5859 37.0806 9.44397 31.596 7.16016C26.1114 9.44397 20.5229 10.5859 16.5781 11.1395V30.2579C16.5781 37.9398 25.9038 44.8951 31.596 48.1478C33.0147 47.3346 34.6584 46.2965 36.3366 45.0681" stroke="#005C8F" stroke-width="0.851231" stroke-linecap="round" stroke-linejoin="round"/>
<path d="M46.6236 13.6641C39.7375 17.0379 31.7441 17.3147 31.7441 17.3147V34.7548C31.7441 45.2223 46.6236 52.2295 46.6236 52.2295C46.6236 52.2295 61.503 45.2223 61.503 34.7548V17.3147C61.503 17.3147 53.5269 17.0379 46.6236 13.6641Z" stroke="#005C8F" stroke-width="1.70246" stroke-linecap="round" stroke-linejoin="round"/>
<path d="M35.8086 20.9834V34.7555C35.8086 40.2921 42.5389 45.3095 46.6221 47.6453C50.7053 45.3095 57.4357 40.2921 57.4357 34.7555V20.9834C54.5982 20.5855 50.5669 19.7723 46.6221 18.1113C42.6774 19.755 38.6461 20.5682 35.8086 20.9834Z" stroke="#005C8F" stroke-width="0.851231" stroke-linecap="round" stroke-linejoin="round"/>
</svg>
