<svg width="64" height="66" viewBox="0 0 64 66" fill="none" xmlns="http://www.w3.org/2000/svg">
<path d="M40.0652 43.1641H45.5195V64.4462H18.5566V43.1641H23.9903" stroke="#005C8F" stroke-width="1.7091" stroke-linecap="round" stroke-linejoin="round"/>
<path d="M62.2813 43.1641H50.9199V64.4462H62.2813V43.1641Z" stroke="#005C8F" stroke-width="1.7091" stroke-linecap="round" stroke-linejoin="round"/>
<path d="M13.1114 43.1641H1.75V64.4462H13.1114V43.1641Z" stroke="#005C8F" stroke-width="1.7091" stroke-linecap="round" stroke-linejoin="round"/>
<path d="M18.5627 45.1602H13.1289V62.4699H18.5627V45.1602Z" stroke="#005C8F" stroke-width="1.7091" stroke-linecap="round" stroke-linejoin="round"/>
<path d="M50.926 45.1602H45.4922V62.4699H50.926V45.1602Z" stroke="#005C8F" stroke-width="1.7091" stroke-linecap="round" stroke-linejoin="round"/>
<path d="M40.0826 43.183C40.0826 43.183 37.3657 48.802 32.0349 48.802C26.7041 48.802 24.0078 43.183 24.0078 43.183V34.7031H40.0826V43.183Z" stroke="#005C8F" stroke-width="1.7091" stroke-linecap="round" stroke-linejoin="round"/>
<path d="M23.3473 17.5396C13.0561 16.6958 5.64648 14.3905 5.64648 11.6942C5.64648 8.25698 17.4608 5.51953 32.0331 5.51953" stroke="#005C8F" stroke-width="0.854549" stroke-linecap="round" stroke-linejoin="round"/>
<path d="M40.719 5.82812C51.0101 6.672 58.4198 8.97723 58.4198 11.6941C58.4198 15.1108 46.6055 17.8688 32.0332 17.8688" stroke="#005C8F" stroke-width="0.854549" stroke-linecap="round" stroke-linejoin="round"/>
<path d="M37.2319 28.2617H26.8379V34.6834H37.2319V28.2617Z" stroke="#005C8F" stroke-width="1.7091" stroke-linecap="round" stroke-linejoin="round"/>
<path d="M27.6035 9.90314L32.0287 5.47794L27.6035 1.05273" stroke="#005C8F" stroke-width="0.854549" stroke-linecap="round" stroke-linejoin="round"/>
<path d="M36.4585 13.4648L32.0332 17.89L36.4585 22.2947" stroke="#005C8F" stroke-width="0.854549" stroke-linecap="round" stroke-linejoin="round"/>
</svg>
