<svg width="68" height="47" viewBox="0 0 68 47" fill="none" xmlns="http://www.w3.org/2000/svg">
<path d="M61.9434 1.36523H2V20.0938H61.9434V1.36523Z" stroke="#005C8F" stroke-width="2.24051" stroke-linecap="round" stroke-linejoin="round"/>
<path d="M65.999 7.12109H61.9414V14.3167H65.999V7.12109Z" stroke="#005C8F" stroke-width="2.24051" stroke-linecap="round" stroke-linejoin="round"/>
<path d="M13.5131 5.70312H7.03711V15.757H13.5131V5.70312Z" stroke="#005C8F" stroke-width="1.12026" stroke-linecap="round" stroke-linejoin="round"/>
<path d="M24.1225 5.70312H17.6465V15.757H24.1225V5.70312Z" stroke="#005C8F" stroke-width="1.12026" stroke-linecap="round" stroke-linejoin="round"/>
<path d="M34.9174 5.70312H28.4414V15.757H34.9174V5.70312Z" stroke="#005C8F" stroke-width="1.12026" stroke-linecap="round" stroke-linejoin="round"/>
<path d="M61.9434 26.3496H2V45.0782H61.9434V26.3496Z" stroke="#005C8F" stroke-width="2.24051" stroke-linecap="round" stroke-linejoin="round"/>
<path d="M65.999 32.1055H61.9414V39.3011H65.999V32.1055Z" stroke="#005C8F" stroke-width="2.24051" stroke-linecap="round" stroke-linejoin="round"/>
<path d="M13.5131 30.6875H7.03711V40.7414H13.5131V30.6875Z" stroke="#005C8F" stroke-width="1.12026" stroke-linecap="round" stroke-linejoin="round"/>
<path d="M24.1225 30.6875H17.6465V40.7414H24.1225V30.6875Z" stroke="#005C8F" stroke-width="1.12026" stroke-linecap="round" stroke-linejoin="round"/>
<path d="M34.9174 30.6875H28.4414V40.7414H34.9174V30.6875Z" stroke="#005C8F" stroke-width="1.12026" stroke-linecap="round" stroke-linejoin="round"/>
</svg>
