<svg width="67" height="64" viewBox="0 0 67 64" fill="none" xmlns="http://www.w3.org/2000/svg">
<path d="M36.5148 6.93952C37.4512 5.77831 38.2566 4.39235 38.2566 3.04385C38.2566 1.35822 37.0205 0.964918 35.8031 1.00238L33.4994 4.20506L31.1957 1.00238C29.9783 0.983647 28.7422 1.37695 28.7422 3.04385C28.7422 4.39235 29.5475 5.77831 30.484 6.93952H36.4961H36.5148Z" stroke="#005C8F" stroke-width="0.802655" stroke-linecap="round" stroke-linejoin="round"/>
<path d="M45.0739 9.48713C45.7107 8.70051 46.2351 7.78278 46.2351 6.88378C46.2351 5.76003 45.411 5.49781 44.5869 5.51654L43.0511 7.65168L41.5154 5.51654C40.71 5.51654 39.8672 5.76003 39.8672 6.88378C39.8672 7.78278 40.4103 8.71923 41.0284 9.48713H45.0552H45.0739Z" stroke="#005C8F" stroke-width="0.802655" stroke-linecap="round" stroke-linejoin="round"/>
<path d="M25.9528 9.48713C26.5896 8.70051 27.114 7.78278 27.114 6.88378C27.114 5.76003 26.2899 5.49781 25.4658 5.51654L23.9301 7.65168L22.3943 5.51654C21.5889 5.51654 20.7461 5.76003 20.7461 6.88378C20.7461 7.78278 21.2892 8.71923 21.9073 9.48713H25.9341H25.9528Z" stroke="#005C8F" stroke-width="0.802655" stroke-linecap="round" stroke-linejoin="round"/>
<path d="M53.0002 40.9697C53.0002 40.9697 51.0149 41.569 48.936 40.2393C47.4376 39.2841 45.5273 34.0961 45.5273 34.0961C45.5273 34.0961 43.6356 33.7028 42.2871 34.6767" stroke="#005C8F" stroke-width="1.60531" stroke-linecap="round" stroke-linejoin="round"/>
<path d="M57.8274 37.5427C57.8274 37.5427 55.2428 39.4343 52.9765 37.5614C50.7103 35.6885 50.1484 35.1641 50.1484 35.1641" stroke="#005C8F" stroke-width="1.60531" stroke-linecap="round" stroke-linejoin="round"/>
<path d="M62.7745 31.6992C62.7745 31.6992 61.6133 35.0517 57.755 34.5086C53.8968 33.9654 53.8594 33.5721 53.8594 33.5721" stroke="#005C8F" stroke-width="1.60531" stroke-linecap="round" stroke-linejoin="round"/>
<path d="M65.7335 24.3008C65.7335 24.3008 65.8084 28.8894 61.2946 29.2827C56.7809 29.676 56.8184 29.47 56.8184 29.47" stroke="#005C8F" stroke-width="1.60531" stroke-linecap="round" stroke-linejoin="round"/>
<path d="M65.5999 16.0234C65.5999 16.0234 66.5551 18.2897 65.5062 20.2188C64.0641 22.8596 59.1758 25.0134 59.1758 25.0134" stroke="#005C8F" stroke-width="1.60531" stroke-linecap="round" stroke-linejoin="round"/>
<path d="M40.2793 28.5896C42.0398 30.6498 48.389 32.3167 48.389 26.6418C48.389 24.413 46.7034 23.5327 46.7034 23.5327C46.7034 23.5327 51.8914 19.9367 54.8693 16.3407C57.8473 12.7447 61.4433 6.91992 61.4433 6.91992C61.4433 6.91992 63.8406 9.07378 63.4473 11.7521C63.054 14.4303 59.0085 18.4946 59.0085 18.4946" stroke="#005C8F" stroke-width="1.60531" stroke-linecap="round" stroke-linejoin="round"/>
<path d="M40.278 28.5914C40.278 28.5914 38.4613 26.9807 38.4613 23.7405C38.4613 20.5004 41.3081 16.9793 44.3797 16.7733C47.1329 16.586 48.369 17.4475 48.369 17.4475C48.369 17.4475 50.7476 12.2783 45.7844 12.2408C37.8058 12.1846 35.1462 12.0723 35.1462 12.0723C35.1462 12.0723 35.783 13.6642 36.4198 14.301C37.0566 14.9378 38.1429 15.5746 38.1429 15.5746C38.1429 15.5746 36.1014 17.2228 35.0338 19.9011C34.1161 22.186 33.498 24.7894 33.498 24.7894" stroke="#005C8F" stroke-width="1.60531" stroke-linecap="round" stroke-linejoin="round"/>
<path d="M14.0273 40.9697C14.0273 40.9697 16.0126 41.569 18.0916 40.2393C19.5899 39.2841 21.5003 34.0961 21.5003 34.0961C21.5003 34.0961 23.3919 33.7028 24.7404 34.6767" stroke="#005C8F" stroke-width="1.60531" stroke-linecap="round" stroke-linejoin="round"/>
<path d="M9.18164 37.5427C9.18164 37.5427 11.7663 39.4343 14.0325 37.5614C16.2987 35.6885 16.8606 35.1641 16.8606 35.1641" stroke="#005C8F" stroke-width="1.60531" stroke-linecap="round" stroke-linejoin="round"/>
<path d="M4.24609 31.6992C4.24609 31.6992 5.4073 35.0517 9.26551 34.5086C13.1237 33.9654 13.1612 33.5721 13.1612 33.5721" stroke="#005C8F" stroke-width="1.60531" stroke-linecap="round" stroke-linejoin="round"/>
<path d="M1.28719 24.3008C1.28719 24.3008 1.21227 28.8894 5.726 29.2827C10.2397 29.676 10.2023 29.47 10.2023 29.47" stroke="#005C8F" stroke-width="1.60531" stroke-linecap="round" stroke-linejoin="round"/>
<path d="M1.39808 16.0234C1.39808 16.0234 0.442896 18.2897 1.49173 20.2188C2.93388 22.8596 7.82219 25.0134 7.82219 25.0134" stroke="#005C8F" stroke-width="1.60531" stroke-linecap="round" stroke-linejoin="round"/>
<path d="M26.7311 28.5896C24.9706 30.6498 18.6214 32.3167 18.6214 26.6418C18.6214 24.413 20.307 23.5327 20.307 23.5327C20.307 23.5327 15.119 19.9367 12.1411 16.3407C9.16315 12.7447 5.56715 6.91992 5.56715 6.91992C5.56715 6.91992 3.16982 9.07378 3.56313 11.7521C3.95644 14.4303 8.00194 18.4946 8.00194 18.4946" stroke="#005C8F" stroke-width="1.60531" stroke-linecap="round" stroke-linejoin="round"/>
<path d="M26.733 28.5914C26.733 28.5914 28.5497 26.9807 28.5497 23.7405C28.5497 20.5004 25.7029 16.9793 22.6313 16.7733C19.8781 16.586 18.642 17.4475 18.642 17.4475C18.642 17.4475 16.2634 12.2783 21.2266 12.2408C29.2052 12.1846 31.8648 12.0723 31.8648 12.0723C31.8648 12.0723 31.228 13.6642 30.5912 14.301C29.9544 14.9378 28.8681 15.5746 28.8681 15.5746C28.8681 15.5746 30.9096 17.2228 31.9771 19.9011C32.8949 22.186 33.5129 24.7894 33.5129 24.7894" stroke="#005C8F" stroke-width="1.60531" stroke-linecap="round" stroke-linejoin="round"/>
<path d="M42.338 59.3995C42.338 59.3995 44.623 58.7253 44.2297 55.7661C43.7614 52.245 35.0898 49.7166 35.0898 49.7166C35.0898 49.7166 35.2959 48.5741 36.1761 47.3005C37.0564 46.0269 38.1052 45.2216 39.4163 45.2216C40.7273 45.2216 41.5701 45.746 41.5701 46.9634C41.5701 48.1808 40.9521 49.2296 40.9521 49.2296C40.9521 49.2296 42.5066 48.6865 45.5407 49.7166C46.421 50.0162 47.2451 50.2972 47.9755 50.5594C48.425 52.3949 50.0732 53.7621 52.0397 53.7621C54.3622 53.7621 56.2351 51.8891 56.2351 49.5667C56.2351 47.2443 54.3434 45.3714 52.0397 45.3714C50.4852 45.3714 49.1367 46.2329 48.4063 47.4878C48.0317 47.4316 47.6946 47.3754 47.4324 47.338C46.2337 47.1507 44.7916 46.8885 44.7916 46.8885C44.7916 46.8885 45.2785 44.6035 45.2785 42.2436C45.2785 37.0744 41.926 38.7225 41.926 38.7225" stroke="#005C8F" stroke-width="1.60531" stroke-linecap="round" stroke-linejoin="round"/>
<path d="M37.8809 61.0112C37.8809 61.0112 38.9484 60.3369 39.4354 59.1195C39.9785 57.7523 39.3605 55.6172 39.3605 55.6172" stroke="#005C8F" stroke-width="1.60531" stroke-linecap="round" stroke-linejoin="round"/>
<path d="M33.498 62.4144C33.498 62.4144 34.6031 61.8713 35.2211 60.5228C35.6894 59.5114 35.3522 57.4512 35.3522 57.4512" stroke="#005C8F" stroke-width="1.60531" stroke-linecap="round" stroke-linejoin="round"/>
<path d="M24.6602 59.4007C24.6602 59.4007 22.3752 58.7265 22.7685 55.7673C23.2368 52.2462 31.9084 49.7177 31.9084 49.7177C31.9084 49.7177 31.7023 48.5753 30.8221 47.3017C29.9418 46.0281 28.893 45.2227 27.5819 45.2227C26.2709 45.2227 25.4281 45.7471 25.4281 46.9645C25.4281 48.1819 26.0461 49.2308 26.0461 49.2308C26.0461 49.2308 24.4916 48.6876 21.4575 49.7177C20.7832 49.9425 20.1652 50.1672 19.5846 50.3733C19.2474 51.4221 18.2735 52.19 17.1123 52.19C15.6702 52.19 14.4902 51.0288 14.4902 49.5679C14.4902 48.107 15.6514 46.9458 17.1123 46.9458C17.6929 46.9458 18.2173 47.1331 18.6481 47.4515C18.9852 47.3953 19.3036 47.3578 19.5471 47.3204C20.7458 47.1331 22.1879 46.8709 22.1879 46.8709C22.1879 46.8709 21.701 44.5859 21.701 42.226C21.701 37.0568 25.0535 38.705 25.0535 38.705" stroke="#005C8F" stroke-width="1.60531" stroke-linecap="round" stroke-linejoin="round"/>
<path d="M29.1353 61.0112C29.1353 61.0112 28.0678 60.3369 27.5808 59.1195C27.0377 57.7523 27.6557 55.6172 27.6557 55.6172" stroke="#005C8F" stroke-width="1.60531" stroke-linecap="round" stroke-linejoin="round"/>
<path d="M33.5029 62.4144C33.5029 62.4144 32.3978 61.8713 31.7798 60.5228C31.3115 59.5114 31.6487 57.4512 31.6487 57.4512" stroke="#005C8F" stroke-width="1.60531" stroke-linecap="round" stroke-linejoin="round"/>
<path d="M14.8665 48.2184L6.86914 40.502" stroke="#005C8F" stroke-width="1.60531" stroke-linecap="round" stroke-linejoin="round"/>
<path d="M20.0729 53.2199L18.5371 51.7402" stroke="#005C8F" stroke-width="1.60531" stroke-linecap="round" stroke-linejoin="round"/>
<path d="M33.4936 43.7245C33.4936 43.7245 33.1565 42.4697 31.7144 42.4697H29.5605C28.7926 42.4697 27.8187 41.9453 27.8187 40.7279C27.8187 39.5105 27.7812 31.3633 27.7812 31.3633H33.4936" stroke="#005C8F" stroke-width="0.802655" stroke-linecap="round" stroke-linejoin="round"/>
<path d="M33.498 43.7245C33.498 43.7245 33.8352 42.4697 35.2773 42.4697H37.4312C38.1991 42.4697 39.173 41.9453 39.173 40.7279C39.173 39.5105 39.2104 31.3633 39.2104 31.3633H33.498" stroke="#005C8F" stroke-width="0.802655" stroke-linecap="round" stroke-linejoin="round"/>
</svg>
