<svg width="76" height="65" viewBox="0 0 76 65" fill="none" xmlns="http://www.w3.org/2000/svg">
<path d="M38.2617 57.6583H54.7225V55.2331H61.3679V57.6583H75.2508V23.7246H61.3679V26.1498H54.7225V23.7246H48.0771" stroke="#005C8F" stroke-width="0.811009" stroke-linecap="round" stroke-linejoin="round"/>
<path d="M38.2617 13.3555H48.0771V23.7246" stroke="#005C8F" stroke-width="0.811009" stroke-linecap="round" stroke-linejoin="round"/>
<path d="M44.6016 24.8133V16.9648H38.2617" stroke="#005C8F" stroke-width="0.811009" stroke-linecap="round" stroke-linejoin="round"/>
<path d="M28.4208 23.7227H21.7754V57.6564H38.2553" stroke="#005C8F" stroke-width="1.62202" stroke-linecap="round" stroke-linejoin="round"/>
<path d="M1.24801 57.6582H15.1309L15.1309 23.7054H1.24801L1.24801 57.6582Z" stroke="#005C8F" stroke-width="1.62202" stroke-linecap="round" stroke-linejoin="round"/>
<path d="M15.13 55.2324H21.7754L21.7754 26.1491H15.13L15.13 55.2324Z" stroke="#005C8F" stroke-width="1.62202" stroke-linecap="round" stroke-linejoin="round"/>
<path d="M38.251 13.3535H28.4355V23.7036C28.4355 23.7036 31.7392 30.5782 38.251 30.5782" stroke="#005C8F" stroke-width="1.62202" stroke-linecap="round" stroke-linejoin="round"/>
<path d="M31.9062 13.3543V5.50586H38.2652" stroke="#005C8F" stroke-width="1.62202" stroke-linecap="round" stroke-linejoin="round"/>
<path d="M38.2617 1V64.1507" stroke="#005C8F" stroke-width="0.811009" stroke-linecap="round" stroke-linejoin="round"/>
<path d="M38.2617 53.5529C45.3655 53.5529 51.1134 47.805 51.1134 40.7013C51.1134 33.5975 45.3655 27.8496 38.2617 27.8496" stroke="#005C8F" stroke-width="0.811009" stroke-linecap="round" stroke-linejoin="round"/>
<path d="M46.7793 50.2869H62.2471V52.101H75.2515V29.2812H62.2471V31.0954H46.7793" stroke="#005C8F" stroke-width="0.811009" stroke-linecap="round" stroke-linejoin="round"/>
<path d="M41.7734 28.3268V13.3555" stroke="#005C8F" stroke-width="0.811009" stroke-linecap="round" stroke-linejoin="round"/>
</svg>
