<svg width="62" height="62" viewBox="0 0 62 62" fill="none" xmlns="http://www.w3.org/2000/svg">
<path d="M13.9854 14.3828C12.5557 15.8791 11.3088 17.5582 10.3279 19.387L3.86074 17.8242C2.7801 20.1018 1.98213 22.5457 1.5 25.0894L7.68454 27.633C7.55154 28.6472 7.45177 29.6779 7.45177 30.7253C7.45177 31.7727 7.55154 32.8034 7.68454 33.8176L1.5 36.3612C1.98213 38.9048 2.7801 41.3487 3.86074 43.6264L10.3279 42.0636C11.3254 43.8924 12.5723 45.5715 13.9854 47.0678L10.4775 52.7536C12.3396 54.4992 14.4011 56.0121 16.6454 57.2589L20.968 52.1717C22.8134 53.0528 24.7918 53.7178 26.8533 54.1002L27.3687 60.7502C28.6155 60.8999 29.8957 60.9996 31.1924 60.9996C32.4892 60.9996 33.7527 60.9165 35.0162 60.7502L35.5316 54.1002C37.6097 53.7178 39.5715 53.0694 41.4168 52.1717L45.7394 57.2589C47.9838 56.0287 50.0619 54.4992 51.9073 52.7536L48.3994 47.0678C49.8292 45.5715 51.0761 43.8924 52.057 42.0636L58.5241 43.6264C59.6047 41.3487 60.4027 38.9048 60.8849 36.3612L54.7003 33.8176C54.8333 32.8034 54.9331 31.7727 54.9331 30.7253C54.9331 29.6779 54.8333 28.6472 54.7003 27.633L60.8849 25.0894C60.4027 22.5457 59.6047 20.1018 58.5241 17.8242L52.057 19.387C51.0594 17.5582 49.8125 15.8791 48.3994 14.3828" stroke="#005C8F" stroke-width="1.45858" stroke-linecap="round" stroke-linejoin="round"/>
<path d="M31.2272 48.9972C32.9717 48.9972 34.3859 47.583 34.3859 45.8384C34.3859 44.0939 32.9717 42.6797 31.2272 42.6797C29.4826 42.6797 28.0684 44.0939 28.0684 45.8384C28.0684 47.583 29.4826 48.9972 31.2272 48.9972Z" stroke="#005C8F" stroke-width="0.72929" stroke-linecap="round" stroke-linejoin="round"/>
<path d="M20.5338 48.9972C22.2783 48.9972 23.6925 47.583 23.6925 45.8384C23.6925 44.0939 22.2783 42.6797 20.5338 42.6797C18.7892 42.6797 17.375 44.0939 17.375 45.8384C17.375 47.583 18.7892 48.9972 20.5338 48.9972Z" stroke="#005C8F" stroke-width="0.72929" stroke-linecap="round" stroke-linejoin="round"/>
<path d="M41.8619 48.9972C43.6064 48.9972 45.0206 47.583 45.0206 45.8384C45.0206 44.0939 43.6064 42.6797 41.8619 42.6797C40.1173 42.6797 38.7031 44.0939 38.7031 45.8384C38.7031 47.583 40.1173 48.9972 41.8619 48.9972Z" stroke="#005C8F" stroke-width="0.72929" stroke-linecap="round" stroke-linejoin="round"/>
<path d="M31.1934 42.6963V22.0312" stroke="#005C8F" stroke-width="0.72929" stroke-linecap="round" stroke-linejoin="round"/>
<path d="M35.9969 12.3549H40.0534L31.1922 1L22.3477 12.3549H26.4042" stroke="#005C8F" stroke-width="0.72929" stroke-linecap="round" stroke-linejoin="round"/>
<path d="M26.4082 28.2823V12.3555" stroke="#005C8F" stroke-width="0.72929" stroke-linecap="round" stroke-linejoin="round"/>
<path d="M35.998 16.0625V32.9702" stroke="#005C8F" stroke-width="0.72929" stroke-linecap="round" stroke-linejoin="round"/>
<path d="M20.5371 29.4286V18.5059" stroke="#005C8F" stroke-width="0.72929" stroke-linecap="round" stroke-linejoin="round"/>
<path d="M41.8711 18.5059V29.4286" stroke="#005C8F" stroke-width="0.72929" stroke-linecap="round" stroke-linejoin="round"/>
<path d="M20.5371 42.6951V38.7051" stroke="#005C8F" stroke-width="0.72929" stroke-linecap="round" stroke-linejoin="round"/>
<path d="M41.8711 38.7051V42.6951" stroke="#005C8F" stroke-width="0.72929" stroke-linecap="round" stroke-linejoin="round"/>
<path d="M49.5826 40.3175C51.3271 40.3175 52.7413 38.9033 52.7413 37.1588C52.7413 35.4142 51.3271 34 49.5826 34C47.838 34 46.4238 35.4142 46.4238 37.1588C46.4238 38.9033 47.838 40.3175 49.5826 40.3175Z" stroke="#005C8F" stroke-width="0.72929" stroke-linecap="round" stroke-linejoin="round"/>
<path d="M41.8711 29.4297L47.374 34.9326" stroke="#005C8F" stroke-width="0.72929" stroke-linecap="round" stroke-linejoin="round"/>
<path d="M12.8072 40.3195C14.5517 40.3195 15.966 38.9053 15.966 37.1607C15.966 35.4162 14.5517 34.002 12.8072 34.002C11.0627 34.002 9.64844 35.4162 9.64844 37.1607C9.64844 38.9053 11.0627 40.3195 12.8072 40.3195Z" stroke="#005C8F" stroke-width="0.72929" stroke-linecap="round" stroke-linejoin="round"/>
<path d="M20.5381 29.4297L15.0352 34.9326" stroke="#005C8F" stroke-width="0.72929" stroke-linecap="round" stroke-linejoin="round"/>
<path d="M41.8648 38.7066L35.9629 32.8047" stroke="#005C8F" stroke-width="0.72929" stroke-linecap="round" stroke-linejoin="round"/>
<path d="M20.5371 38.7047L26.4723 32.7695" stroke="#005C8F" stroke-width="0.72929" stroke-linecap="round" stroke-linejoin="round"/>
</svg>
