<svg width="58" height="59" viewBox="0 0 58 59" fill="none" xmlns="http://www.w3.org/2000/svg">
<path d="M46.2594 25.3945C46.2784 24.6727 46.113 23.9579 45.7789 23.3178C45.4448 22.6777 44.9529 22.1334 44.3499 21.7362L31.6796 12.8134C30.9812 12.3002 30.1371 12.0234 29.2704 12.0234C28.4037 12.0234 27.5597 12.3002 26.8613 12.8134C22.6617 15.7876 18.462 18.7619 14.2624 21.7362C13.6271 22.1581 13.1101 22.7353 12.7603 23.4129C12.4106 24.0906 12.2396 24.8464 12.2637 25.6086V42.0265C12.2198 42.5062 12.2819 42.9897 12.4458 43.4426C12.6096 43.8956 12.8711 44.307 13.2117 44.6476C13.5523 44.9882 13.9636 45.2496 14.4166 45.4135C14.8695 45.5773 15.3531 45.6395 15.8328 45.5957H42.9223C43.3743 45.6209 43.8266 45.5513 44.2502 45.3915C44.6737 45.2316 45.0592 44.985 45.3818 44.6674C45.7045 44.3498 45.9571 43.9683 46.1236 43.5473C46.2901 43.1263 46.3667 42.6752 46.3486 42.2228C46.2772 36.4944 46.2594 30.9444 46.2594 25.3945ZM41.7623 40.9379H16.6893V40.4561C16.6893 35.5783 16.6893 30.7125 16.6893 25.8585C16.6938 25.6094 16.7964 25.3721 16.9748 25.1982L29.0563 16.6323H29.2348L33.9281 19.9516L41.3698 25.3053C41.5587 25.4417 41.6869 25.6466 41.7267 25.8763C41.7267 30.8909 41.7267 35.8877 41.7267 40.9023C41.7388 40.9139 41.7507 40.9258 41.7623 40.9379Z" stroke="#005C8F" stroke-linecap="round" stroke-linejoin="round"/>
<path d="M45.5787 2H12.9213C6.75159 2 1.75 7.00157 1.75 13.1713V45.8287C1.75 51.9984 6.75159 57 12.9213 57H45.5787C51.7484 57 56.75 51.9984 56.75 45.8287V13.1713C56.75 7.00157 51.7484 2 45.5787 2Z" stroke="#005C8F" stroke-width="2.04958" stroke-linecap="round" stroke-linejoin="round"/>
<path d="M43.646 15.9168C43.655 15.9592 43.6666 16.0009 43.6809 16.0418C43.6905 16.0694 43.6941 16.0986 43.6916 16.1275C43.6891 16.1564 43.6805 16.1845 43.6664 16.21C43.6522 16.2356 43.6328 16.2578 43.6096 16.2751L44.2238 17.0955L43.6096 16.2751C43.5864 16.2925 43.5597 16.3048 43.5312 16.3112C43.4725 16.3244 43.4454 16.3198 43.4423 16.3192C43.4412 16.319 43.4436 16.3202 43.442 16.319C43.4373 16.3155 43.3531 16.2475 43.293 15.998C43.1181 15.1806 42.6479 14.4561 41.9722 13.9634L41.3684 14.7914L41.9722 13.9634C41.2961 13.4704 40.462 13.2443 39.6298 13.328C39.3793 13.3474 39.2878 13.2881 39.2814 13.2834C39.2811 13.2832 39.2809 13.2831 39.2807 13.2829C39.2792 13.2799 39.2726 13.2657 39.2678 13.2352C39.2711 13.1554 39.283 13.1042 39.2929 13.0752C39.2985 13.0587 39.3036 13.049 39.3063 13.0443C39.309 13.0398 39.3108 13.0378 39.3117 13.0369C39.3126 13.0359 39.3151 13.0333 39.3212 13.0292C39.3275 13.025 39.3396 13.0178 39.36 13.0094C39.3987 12.9936 39.4684 12.9734 39.5806 12.9642H40.0242C40.8739 12.9688 41.6965 13.2639 42.3553 13.8006C43.0147 14.3378 43.4702 15.0846 43.646 15.9168Z" stroke="#005C8F" stroke-width="2.04958" stroke-linecap="round" stroke-linejoin="round"/>
<path d="M47.6705 14.8302C47.6607 14.8304 47.651 14.8308 47.6412 14.8313C47.5912 14.8338 47.5421 14.817 47.5041 14.7844C47.466 14.7518 47.4419 14.7058 47.4368 14.6561C47.4346 14.6355 47.4319 14.6151 47.4285 14.5947C47.1939 13.1888 46.5313 11.8894 45.5309 10.874C44.5304 9.85866 43.241 9.1768 41.8386 8.92146C41.7795 8.91069 41.7196 8.90528 41.6595 8.90528C41.2144 8.90528 40.8854 8.90096 40.5723 8.82582C40.4959 8.80748 40.4176 8.79821 40.339 8.79821H39.6072C39.57 8.79821 39.5328 8.80029 39.4958 8.80444C39.4747 8.8068 39.4533 8.80493 39.4327 8.79885C39.4122 8.7928 39.3932 8.78271 39.3767 8.76918L39.3767 8.76918C39.3602 8.75571 39.3466 8.73903 39.3366 8.72006C39.3266 8.70112 39.3205 8.68043 39.3187 8.65922C39.3174 8.64474 39.3159 8.63029 39.314 8.61587C39.311 8.59286 39.3125 8.56932 39.3187 8.54658C39.3248 8.52396 39.3352 8.50283 39.3495 8.48436C39.3637 8.4659 39.3814 8.45036 39.4018 8.43868C39.422 8.42704 39.4444 8.41952 39.4676 8.41653C39.4805 8.41486 39.4934 8.41294 39.5062 8.41077C40.4562 8.25026 41.429 8.28668 42.3643 8.51781C43.2995 8.74893 44.1772 9.16984 44.9431 9.75438C44.9496 9.75936 44.9562 9.76425 44.9628 9.76907C46.4233 10.8279 47.4299 12.3994 47.7811 14.1688L47.7811 14.1688L47.7826 14.1762C47.8688 14.5935 47.7938 14.7745 47.7737 14.8086C47.772 14.8115 47.7707 14.8135 47.7697 14.8148C47.7668 14.8161 47.7607 14.8185 47.7503 14.8211C47.735 14.8249 47.7091 14.8294 47.6705 14.8302Z" stroke="#005C8F" stroke-width="2" stroke-linecap="round" stroke-linejoin="round"/>
</svg>
